<svg xmlns="http://www.w3.org/2000/svg" width="128" height="128" id="alcohol">
  <path fill="#33495d" d="M67.5 29.498c0 .554-.458 1-1.026 1h.052c-.568 0-1.026.446-1.026 1s.458 1 1.026 1H66.5c.554 0 1 .446 1 1v1c0 .554-.446 1-1 1l.1-.01a1.5 1.5 0 0 0-.75 2.799l.23.138a5.502 5.502 0 0 1 1.99 2.418 5.466 5.466 0 0 1 .43 2.145v.513a4.993 4.993 0 0 0 4.994 4.993H74c6.371 0 11.5 5.13 11.5 11.5v32c0 6.372-5.129 11.5-11.5 11.5H48c-6.371 0-11.5-5.128-11.5-11.5v-32c0-6.37 5.129-11.5 11.5-11.5h.507a4.993 4.993 0 0 0 4.992-4.993l.001-.513a5.571 5.571 0 0 1 .43-2.145 5.474 5.474 0 0 1 1.99-2.418l.23-.138a1.5 1.5 0 0 0-.75-2.8l.1.01c-.554 0-1-.445-1-1v-1c0-.553.446-1 1-1h-.026c.568 0 1.026-.445 1.026-1 0-.553-.458-1-1.026-1h.052a1.011 1.011 0 0 1-1.026-1v-6c0-1.107.892-2 2-2h9c1.108 0 2 .893 2 2v5.9z"></path>
  <path fill="#c9d6e5" d="M75.5 75.998a14.5 19.5 0 0 1-14.5 19.5 14.5 19.5 0 0 1-14.5-19.5 14.5 19.5 0 0 1 14.5-19.5 14.5 19.5 0 0 1 14.5 19.5z"></path>
  <path fill="#f9b94e" d="M54.09 40.498a5.174 5.174 0 0 1 .347-.59 5.503 5.503 0 0 1 1.484-1.483l.229-.138a1.5 1.5 0 0 0-.75-2.8l.1.01c-.554 0-1-.445-1-1v-11c0-1.107.892-2 2-2h9c1.108 0 2 .893 2 2v11c0 .555-.446 1-1 1l.1-.01a1.5 1.5 0 0 0-.75 2.8l.23.138a5.502 5.502 0 0 1 1.833 2.08z"></path>
  <path fill="#d99e45" d="M65.502 21.498c1.108 0 2 .892 2 2v11c0 .554-.446 1-1 1l.1-.01a1.5 1.5 0 0 0-.75 2.799l.23.138a5.49 5.49 0 0 1 1.758 1.938c.024.045.05.089.072.135l-13.822.01h11.32a5.56 5.56 0 0 0-.346-.59 5.491 5.491 0 0 0-1.484-1.483l-.228-.138a1.5 1.5 0 0 1 .75-2.8l-.1.01c.554 0 1-.445 1-1v-11c0-1.107-.892-2-2-2h2.5z"></path>
  <path fill="#103347" d="M67.837 40.362a5.512 5.512 0 0 1 .663 2.626v.514a4.993 4.993 0 0 0 4.994 4.992H74c6.371 0 11.5 5.129 11.5 11.5v32c0 6.37-5.129 11.5-11.5 11.5h-2.5c6.371 0 11.5-5.13 11.5-11.5v-32c0-6.371-5.129-11.5-11.5-11.5h-.506A4.993 4.993 0 0 1 66 43.502v-.514a5.463 5.463 0 0 0-.663-2.626c1.663.114.663 0 2.5 0z"></path>
  <path fill="#fff" d="M56.5 21.498c-1.108 0-2 .892-2 2v11c0 .554.446 1 1 1l-.1-.01a1.5 1.5 0 0 1 .75 2.798l-.23.139a5.49 5.49 0 0 0-1.758 1.938c-.024.045-.05.088-.072.134l13.822.006v-.002l-11.32-.004.07-.134a5.491 5.491 0 0 1 1.76-1.938l.228-.139a1.5 1.5 0 0 0-.75-2.798l.1.01c-.554 0-1-.446-1-1v-11c0-1.108.892-2 2-2h-2.5z"></path>
  <path fill="#103347" d="M48.007 103.498a1.49 1.49 0 0 1 1.493 1.492v.01c0 .831.669 1.5 1.5 1.5h20c.831 0 1.5-.669 1.5-1.5 0-.83.669-1.5 1.5-1.5"></path>
  <path fill="#0b2331" d="M68.516 106.5c.827 0 1.492-.666 1.492-1.493v-.01c0-.83.669-1.5 1.5-1.5H74c-.831 0-1.5.67-1.5 1.5v.01c0 .827-.664 1.491-1.49 1.493H68.516z"></path>
  <path fill="#fff" d="M48.008 103.498c.827 0 1.492.665 1.492 1.492v.01c0 .83.669 1.5 1.5 1.5h2.492c-.83 0-1.5-.67-1.5-1.5v-.01c0-.826-.664-1.491-1.49-1.492H48.008zm6.155-63.136a5.511 5.511 0 0 0-.663 2.626v.513a4.993 4.993 0 0 1-4.994 4.993l-.506.002c-6.371 0-11.5 5.129-11.5 11.5v32c0 6.37 5.129 11.5 11.5 11.5h2.5c-6.371 0-11.5-5.13-11.5-11.5v-32c0-6.371 5.129-11.5 11.5-11.5l.506-.002A4.993 4.993 0 0 0 56 43.5v-.513a5.463 5.463 0 0 1 .663-2.626c-1.663.113-1.663 0-2.5 0z"></path>
  <path fill="#004463" d="M48.008 1027.36a.5.5 0 1 0 0 1c.558 0 .992.433.992.992a.5.5 0 0 0 0 .01c0 1.099.9 2 2 2h20c.961 0 1.663-.737 1.852-1.645a.5.5 0 0 0 .148-.356c0-.562.437-1 1-1a.5.5 0 1 0 0-1c-1.1 0-2 .901-2 2 0 .563-.437 1-1 1H51c-.563 0-1-.437-1-1v-.01a1.999 1.999 0 0 0-1.992-1.992zm6.484-69.008a.5.5 0 0 0-.492.507c0 .823.678 1.5 1.5 1.5h11c.822 0 1.5-.677 1.5-1.5a.5.5 0 1 0-1 0c0 .286-.214.5-.5.5h-11a.488.488 0 0 1-.5-.5.5.5 0 0 0-.508-.507zM61 980.359c-4.186 0-7.958 2.288-10.654 5.914C47.649 989.9 46 994.874 46 1000.36c0 5.486 1.65 10.462 4.346 14.088 2.696 3.627 6.468 5.912 10.654 5.912s7.958-2.285 10.654-5.912c2.697-3.626 4.346-8.602 4.346-14.088 0-5.485-1.65-10.459-4.346-14.086-2.696-3.626-6.468-5.914-10.654-5.914zm0 1c3.822 0 7.3 2.08 9.852 5.51 2.55 3.431 4.148 8.206 4.148 13.49 0 5.285-1.597 10.06-4.148 13.49-2.552 3.432-6.03 5.51-9.852 5.51s-7.3-2.078-9.852-5.51c-2.55-3.43-4.148-8.205-4.148-13.49 0-5.284 1.597-10.059 4.148-13.49 2.552-3.43 6.03-5.51 9.852-5.51z" color="#000" font-family="sans-serif" font-weight="400" overflow="visible" style="line-height:normal;text-indent:0;text-align:start;text-decoration-line:none;text-decoration-style:solid;text-decoration-color:#000;text-transform:none;block-progression:tb;isolation:auto;mix-blend-mode:normal" transform="translate(0 -924.362)"></path>
  <path fill="#004463" fill-rule="evenodd" d="M54.5 949.36v1h13v-1h-13zm-.5 15v1h14v-1H54zm2-18v3h1v-3h-1zm2 0v3h1v-3h-1zm2.5 0v3h1v-3h-1zm4.5 0v3h1v-3h-1zm-2 0v3h1v-3h-1z" color="#000" font-family="sans-serif" font-weight="400" overflow="visible" style="line-height:normal;text-indent:0;text-align:start;text-decoration-line:none;text-decoration-style:solid;text-decoration-color:#000;text-transform:none;block-progression:tb;isolation:auto;mix-blend-mode:normal" transform="translate(0 -924.362)"></path>
  <path fill="#004463" d="M56.5 945.36a2.506 2.506 0 0 0-2.5 2.5v11c0 .629.449 1.072 1.004 1.292a.5.5 0 0 0 .346.196l.054.006a.993.993 0 0 1 .961.736.995.995 0 0 1-.465 1.125.5.5 0 0 0-.007.006l-.23.137a.5.5 0 0 0-.022.013A6.003 6.003 0 0 0 53 967.35v.513a4.486 4.486 0 0 1-4.494 4.492l-.506.002c-6.64 0-12 5.361-12 12v32c0 6.64 5.36 12 12 12h26c6.64 0 12-5.36 12-12v-32c0-6.639-5.36-12-12-12l-.506-.002A4.492 4.492 0 0 1 69 967.863v-.513a5.975 5.975 0 0 0-1.754-4.246 6.004 6.004 0 0 0-.887-.733.5.5 0 0 0-.021-.014l-.23-.136a.5.5 0 0 0-.008-.006.995.995 0 0 1-.465-1.125.993.993 0 0 1 .96-.737l.055-.006a.5.5 0 0 0 .348-.195c.554-.22 1.002-.664 1.002-1.293v-11c0-1.376-1.124-2.5-2.5-2.5h-9zm0 1h9c.84 0 1.5.66 1.5 1.5v11a.487.487 0 0 1-.496.495l-.053.006a.5.5 0 0 0-.297.141c-.693.173-1.295.618-1.486 1.33-.233.871.15 1.796.93 2.248l.002.002.199.12a5.007 5.007 0 0 1 1.35 1.349 4.957 4.957 0 0 1 .75 1.787c.066.326.101.664.101 1.012v.513a5.496 5.496 0 0 0 5.494 5.492l.506.002c6.103 0 11 4.898 11 11v32c0 6.103-4.897 11-11 11H48c-6.103 0-11-4.897-11-11v-32c0-6.102 4.897-11 11-11l.506-.002A5.501 5.501 0 0 0 54 967.863v-.513a4.97 4.97 0 0 1 1.46-3.54c.227-.225.475-.43.741-.609l.2-.119.001-.002a2.004 2.004 0 0 0 .93-2.248c-.19-.712-.792-1.157-1.484-1.33a.5.5 0 0 0-.3-.14l-.052-.007a.487.487 0 0 1-.496-.496v-11c0-.84.66-1.5 1.5-1.5z" color="#000" font-family="sans-serif" font-weight="400" overflow="visible" style="line-height:normal;text-indent:0;text-align:start;text-decoration-line:none;text-decoration-style:solid;text-decoration-color:#000;text-transform:none;block-progression:tb;isolation:auto;mix-blend-mode:normal" transform="translate(0 -924.362)"></path>
  <path fill="#004463" d="M61 980.36c-4.186 0-7.958 2.287-10.654 5.913C47.649 989.9 46 994.874 46 1000.36c0 5.486 1.65 10.462 4.346 14.088 2.696 3.627 6.468 5.912 10.654 5.912s7.958-2.285 10.654-5.912c2.697-3.626 4.346-8.602 4.346-14.088 0-5.485-1.65-10.459-4.346-14.086-2.696-3.626-6.468-5.914-10.654-5.914Zm0 1c3.822 0 7.3 2.078 9.852 5.51 2.55 3.43 4.148 8.205 4.148 13.49 0 5.284-1.597 10.059-4.148 13.49-2.552 3.43-6.03 5.51-9.852 5.51s-7.3-2.08-9.852-5.51c-2.55-3.432-4.148-8.206-4.148-13.49 0-5.285 1.597-10.06 4.148-13.49 2.552-3.432 6.03-5.51 9.852-5.51z" color="#000" font-family="sans-serif" font-weight="400" overflow="visible" style="line-height:normal;text-indent:0;text-align:start;text-decoration-line:none;text-decoration-style:solid;text-decoration-color:#000;text-transform:none;block-progression:tb;isolation:auto;mix-blend-mode:normal" transform="translate(0 -924.362)"></path>
  <path fill="#004463" fill-rule="evenodd" d="M57.57 989.31a.5.5 0 0 0-.398.245l-3.598 6.088a.5.5 0 1 0 .86.507l3.168-5.359 3.168 5.36a.5.5 0 1 0 .859-.508l-3.598-6.088a.5.5 0 0 0-.46-.244z" color="#000" font-family="sans-serif" font-weight="400" overflow="visible" style="line-height:normal;text-indent:0;text-align:start;text-decoration-line:none;text-decoration-style:solid;text-decoration-color:#000;text-transform:none;block-progression:tb;isolation:auto;mix-blend-mode:normal" transform="translate(0 -924.362)"></path>
  <path fill="#004463" fill-rule="evenodd" d="M62.367 989.31a.5.5 0 0 0-.398.245l-2.37 4.006a.5.5 0 1 0 .862.51l1.937-3.28 3.168 5.36a.5.5 0 1 0 .86-.508l-3.598-6.088a.5.5 0 0 0-.46-.244z" color="#000" font-family="sans-serif" font-weight="400" overflow="visible" style="line-height:normal;text-indent:0;text-align:start;text-decoration-line:none;text-decoration-style:solid;text-decoration-color:#000;text-transform:none;block-progression:tb;isolation:auto;mix-blend-mode:normal" transform="translate(0 -924.362)"></path>
  <path fill="#004463" d="M66.5 986.316c-1.099 0-2 .902-2 2 0 1.099.901 2 2 2s2-.901 2-2c0-1.098-.901-2-2-2zm0 1c.558 0 1 .442 1 1 0 .559-.442 1-1 1s-1-.441-1-1c0-.558.442-1 1-1z" color="#000" font-family="sans-serif" font-weight="400" overflow="visible" style="line-height:normal;text-indent:0;text-align:start;text-decoration-line:none;text-decoration-style:solid;text-decoration-color:#000;text-transform:none;block-progression:tb;isolation:auto;mix-blend-mode:normal" transform="translate(0 -924.362)"></path>
  <path fill="#55b698" d="M53 74.998h16c.554 0 1 .446 1 1v3c0 .554-.446 1-1 1H53c-.554 0-1-.446-1-1v-3c0-.554.446-1 1-1zm3 7h10c.554 0 1 .446 1 1s-.446 1-1 1H56c-.554 0-1-.446-1-1s.446-1 1-1zm0 4h10c.554 0 1 .446 1 1s-.446 1-1 1H56c-.554 0-1-.446-1-1s.446-1 1-1z"></path>
  <path fill="#004463" fill-rule="evenodd" d="M81.56 969.986a.5.5 0 0 0-.492.508v1.711a.5.5 0 1 0 1 0v-1.71a.5.5 0 0 0-.507-.509zm5.165 6.875a.5.5 0 1 0 0 1h1.71a.5.5 0 1 0 0-1h-1.71zm-.31-4.861a.5.5 0 0 0-.345.152l-1.209 1.211a.5.5 0 1 0 .707.707l1.21-1.21a.5.5 0 0 0-.364-.86z" color="#000" font-family="sans-serif" font-weight="400" overflow="visible" style="line-height:normal;text-indent:0;text-align:start;text-decoration-line:none;text-decoration-style:solid;text-decoration-color:#000;text-transform:none;block-progression:tb;isolation:auto;mix-blend-mode:normal" transform="translate(0 -924.362)"></path>
</svg>
