<svg xmlns="http://www.w3.org/2000/svg" width="128" height="128" id="blue">
  <path fill="#b0c4da" d="M50.583 47.84h30.516l-2.04 34.584H52.622z"></path>
  <path fill="#3a90cd" d="m51.004 54.96 1.621 27.465h26.433L80.68 54.96H51.004z"></path>
  <path fill="#fff" d="m51.004 54.96 1.621 27.465h2.631L53.635 54.96h-2.631z"></path>
  <path fill="#b0c4da" fill-rule="evenodd" d="M52.612 82.42h26.46v4.08h-26.46z"></path>
  <path fill="#fff" fill-rule="evenodd" d="M52.613 82.422v4.077h3.044v-4.077h-3.044z"></path>
  <path fill="#fff" d="m50.581 47.84 2.042 34.583h3.052L53.637 47.84H50.58z"></path>
  <path fill="#99b5ce" d="m81.099 47.84-2.043 34.583h-3.052l2.04-34.583h3.055z"></path>
  <path fill="#1c7bcc" d="m77.63 54.96-1.621 27.467h3.048l1.62-27.466H77.63z"></path>
  <path fill="#99b5ce" fill-rule="evenodd" d="M76.02 82.419v4.08h3.052v-4.08h-3.051z"></path>
  <path fill="#004463" d="M50.582 971.701a.5.5 0 0 0-.498.53l2.041 34.585a.5.5 0 0 0 .498.471h26.436a.5.5 0 0 0 .498-.47l2.04-34.587a.5.5 0 0 0-.497-.529H50.582zm.531 1h29.455l-1.982 33.586h-25.49l-1.983-33.586z" color="#000" font-family="sans-serif" font-weight="400" overflow="visible" style="line-height:normal;text-indent:0;text-align:start;text-decoration-line:none;text-decoration-style:solid;text-decoration-color:#000;text-transform:none;block-progression:tb;isolation:auto;mix-blend-mode:normal" transform="translate(0 -924.362)"></path>
  <path fill="#004463" fill-rule="evenodd" d="M52.611 1006.293a.5.5 0 0 0-.5.5v4.068a.5.5 0 0 0 .5.5h26.45a.5.5 0 0 0 .5-.5v-4.068a.5.5 0 0 0-.5-.5H52.61zm.5 1h25.45v3.068H53.11v-3.068z" color="#000" font-family="sans-serif" font-weight="400" overflow="visible" style="line-height:normal;text-indent:0;text-align:start;text-decoration-line:none;text-decoration-style:solid;text-decoration-color:#000;text-transform:none;block-progression:tb;isolation:auto;mix-blend-mode:normal" transform="translate(0 -924.362)"></path>
  <path fill="#1c7bcc" d="M65.474 70.037a1.2 1.201 90 0 1 1.201-1.2 1.2 1.201 90 0 1 1.202 1.2 1.2 1.201 90 0 1-1.202 1.199 1.2 1.201 90 0 1-1.2-1.2zM61.773 62.589a1.526 1.526 0 0 1-1.526 1.526 1.526 1.526 0 0 1-1.526-1.526 1.526 1.526 0 0 1 1.526-1.526 1.526 1.526 0 0 1 1.526 1.526zm-2.035 13.733a1.017 1.017 0 0 1-1.017 1.017 1.017 1.017 0 0 1-1.017-1.017 1.017 1.017 0 0 1 1.017-1.017 1.017 1.017 0 0 1 1.017 1.017zm10.173 1.526a1.526 1.526 0 0 1-1.526 1.526 1.526 1.526 0 0 1-1.526-1.526 1.526 1.526 0 0 1 1.526-1.526 1.526 1.526 0 0 1 1.526 1.526zm6.104-5.595a1.017 1.017 0 0 1-1.018 1.017 1.017 1.017 0 0 1-1.017-1.017 1.017 1.017 0 0 1 1.017-1.017 1.017 1.017 0 0 1 1.018 1.017zm-2.035-8.647a1.526 1.526 0 0 1-1.526 1.526 1.526 1.526 0 0 1-1.526-1.526 1.526 1.526 0 0 1 1.526-1.526 1.526 1.526 0 0 1 1.526 1.526z"></path>
  <path fill="#004463" fill-rule="evenodd" d="M45.508 972.13a.5.5 0 1 0 0 1h1.48a.5.5 0 1 0 0-1h-1.48zm5.984-6a.5.5 0 0 0-.492.507v1.482a.5.5 0 1 0 1 0v-1.482a.5.5 0 0 0-.508-.506zm-4.234 1.757a.5.5 0 0 0-.35.86l1.049 1.046a.5.5 0 1 0 .707-.707l-1.049-1.047a.5.5 0 0 0-.357-.152z" color="#000" font-family="sans-serif" font-weight="400" overflow="visible" style="line-height:normal;text-indent:0;text-align:start;text-decoration-line:none;text-decoration-style:solid;text-decoration-color:#000;text-transform:none;block-progression:tb;isolation:auto;mix-blend-mode:normal" transform="translate(0 -924.362)"></path>
</svg>
