<svg xmlns="http://www.w3.org/2000/svg" width="128" height="128" id="alcohol">
  <path fill="#004463" d="M63.534 942.637a2.907 2.907 0 0 0-2.05 3.552 2.907 2.907 0 0 0 3.551 2.05 2.908 2.908 0 0 0 2.05-3.551 2.908 2.908 0 0 0-3.551-2.051zm.259.966a1.893 1.893 0 0 1 2.327 1.343 1.893 1.893 0 0 1-1.344 2.328 1.891 1.891 0 0 1-2.325-1.344 1.891 1.891 0 0 1 1.342-2.327zm-18.018-1.176a2.008 2.008 0 0 0-1.415 2.45 2.008 2.008 0 0 0 2.45 1.414 2.008 2.008 0 0 0 1.414-2.45 2.008 2.008 0 0 0-2.45-1.414zm.259.966a.993.993 0 0 1 1.224.707.993.993 0 0 1-.707 1.225.993.993 0 0 1-1.225-.707.993.993 0 0 1 .708-1.225z" color="#000" font-family="sans-serif" font-weight="400" overflow="visible" style="line-height:normal;text-indent:0;text-align:start;text-decoration-line:none;text-decoration-style:solid;text-decoration-color:#000;text-transform:none;block-progression:tb;isolation:auto;mix-blend-mode:normal" transform="translate(0 -924.362)"></path>
  <path fill="#004463" fill-rule="evenodd" d="M31.885 956.11a.5.5 0 0 0-.494.636l.271 1.008a.5.5 0 1 0 .965-.258l-.27-1.01a.5.5 0 0 0-.472-.377zm1.898 7.087a.5.5 0 0 0-.492.637l.27 1.01a.5.5 0 0 0 .966-.26l-.271-1.008a.5.5 0 0 0-.473-.379zm3.229-4.119a.5.5 0 0 0-.133.02l-1.01.27a.5.5 0 1 0 .26.966l1.008-.272a.5.5 0 0 0-.125-.984zm-7.088 1.9a.5.5 0 0 0-.135.018l-1.008.272a.5.5 0 1 0 .258.964l1.01-.27a.5.5 0 0 0-.125-.983zm5.139-4.449a.5.5 0 0 0-.442.256l-.521.904a.5.5 0 1 0 .865.5l.523-.904a.5.5 0 0 0-.425-.756zm-3.67 6.356a.5.5 0 0 0-.44.256l-.523.904a.5.5 0 1 0 .867.5l.521-.904a.5.5 0 0 0-.425-.756zm4.253-1.149a.5.5 0 0 0-.212.936l.904.521a.5.5 0 1 0 .5-.865l-.904-.521a.5.5 0 0 0-.288-.07zm-6.355-3.67a.5.5 0 0 0-.213.936l.906.523a.5.5 0 1 0 .5-.867l-.906-.521a.5.5 0 0 0-.287-.07z" color="#000" font-family="sans-serif" font-weight="400" overflow="visible" style="line-height:normal;text-indent:0;text-align:start;text-decoration-line:none;text-decoration-style:solid;text-decoration-color:#000;text-transform:none;block-progression:tb;isolation:auto;mix-blend-mode:normal" transform="translate(0 -924.362)"></path>
  <path fill="#ffe5b2" d="M84.703 1023.065h6.6c4.612 0 8.4-3.788 8.4-8.4v-19.2c0-4.612-3.788-8.4-8.4-8.4h-6.6m0 4.8h6.6c2.035 0 3.6 1.564 3.6 3.6v19.2c0 2.036-1.565 3.6-3.6 3.6h-6.6" color="#000" font-family="sans-serif" font-weight="400" overflow="visible" style="line-height:normal;text-indent:0;text-align:start;text-decoration-line:none;text-decoration-style:solid;text-decoration-color:#000;text-transform:none;block-progression:tb;isolation:auto;mix-blend-mode:normal" transform="translate(0 -924.362)"></path>
  <path fill="#fff" d="M84.703 987.065v4.8h1.8v-4.8h-1.8zm6.6 4.8c2.035 0 3.6 1.564 3.6 3.6v19.2c0 2.036-1.565 3.6-3.6 3.6h1.8c2.035 0 3.6-1.564 3.6-3.6v-19.2c0-2.036-1.565-3.6-3.6-3.6h-1.8zm-6.6 26.4v4.8h1.8v-4.8h-1.8z" color="#000" font-family="sans-serif" font-weight="400" overflow="visible" style="line-height:normal;text-indent:0;text-align:start;text-decoration-line:none;text-decoration-style:solid;text-decoration-color:#000;text-transform:none;block-progression:tb;isolation:auto;mix-blend-mode:normal" transform="translate(0 -924.362)"></path>
  <path fill="#fff9d1" d="M44.503 52.503h39.6c.664 0 1.2.535 1.2 1.2v8.4c0 .665-.536 1.2-1.2 1.2h-39.6c-.665 0-1.2-.535-1.2-1.2v-8.4c0-.665.535-1.2 1.2-1.2z"></path>
  <path fill="#f9b94e" fill-rule="evenodd" d="M84.703 62.103v39.6c0 2.992-2.409 5.4-5.4 5.4h-31.2a5.388 5.388 0 0 1-5.4-5.4v-39.6"></path>
  <path fill="#fff" fill-rule="evenodd" d="M84.623 55.43c-.175.18-.362.351-.572.5a4.17 4.17 0 0 1-1.474.651 4.207 4.207 0 0 0 2.046-.032v-1.118zm-34.802.074a3.592 3.592 0 0 0-3.593 3.59v46.817c0 .287-.042.562-.106.83a5.38 5.38 0 0 0 1.908.363h1.908a5.38 5.38 0 0 1-1.908-.363 3.57 3.57 0 0 0 .106-.83V59.094a3.58 3.58 0 0 1 2.646-3.447 3.562 3.562 0 0 0-.952-.143h-.012zm12.602 0c-1.662 0-3 1.327-3 2.976v7.247c0 1.316-.858 2.415-2.046 2.81.3.1.618.167.954.167 1.662 0 3-1.328 3-2.977V58.48c0-1.315.857-2.412 2.046-2.807a3.022 3.022 0 0 0-.954-.17zm16.788.438-.079.103c-.729 1.382-1.962 2.385-3.408 2.768-.116.031-.234.05-.351.073a5.072 5.072 0 0 0 2.259-.073c1.243-.33 2.306-1.136 3.05-2.229a4.178 4.178 0 0 1-1.47-.642zm-7.715 2.13h-.104a3.001 3.001 0 0 1-1.975 3.256c.892.287 1.874.17 2.653-.384a2.994 2.994 0 0 0 1.235-2.107 5.2 5.2 0 0 1-1.81-.77z"></path>
  <path fill="#d99e45" d="M49.406 87.492a1.417 1.415 0 0 1-1.417 1.415 1.417 1.415 0 0 1-1.417-1.415 1.417 1.415 0 0 1 1.417-1.414 1.417 1.415 0 0 1 1.417 1.414zm-.595-18.896a.708.707 0 0 1-.708.707.708.707 0 0 1-.709-.707.708.707 0 0 1 .709-.707.708.707 0 0 1 .708.707z"></path>
  <path fill="#fff" fill-rule="evenodd" d="M46.195 62.103v43.807c0 .288-.042.562-.106.83a5.38 5.38 0 0 0 1.908.363h1.908a5.38 5.38 0 0 1-1.908-.363 3.57 3.57 0 0 0 .106-.83V62.103h-1.908zm13.2 0v3.624c0 1.315-.858 2.414-2.046 2.81.3.1.618.166.954.166 1.662 0 3-1.327 3-2.976v-3.623h-1.908z"></path>
  <path fill="#d99e45" fill-rule="evenodd" d="M82.904 62.104v39.6c0 2.992-2.409 5.4-5.4 5.4H79.3c2.992 0 5.4-2.408 5.4-5.4v-39.6h-1.797z"></path>
  <path fill="#004463" fill-rule="evenodd" d="M42.695 979.357a.5.5 0 0 0-.492.508v46.2c0 3.26 2.639 5.9 5.899 5.9h31.2c3.26 0 5.901-2.64 5.901-5.9v-46.2a.5.5 0 1 0-1 0v46.2c0 2.723-2.177 4.9-4.9 4.9H48.102a4.877 4.877 0 0 1-4.899-4.9v-46.2a.5.5 0 0 0-.508-.508z" color="#000" font-family="sans-serif" font-weight="400" overflow="visible" style="line-height:normal;text-indent:0;text-align:start;text-decoration-line:none;text-decoration-style:solid;text-decoration-color:#000;text-transform:none;block-progression:tb;isolation:auto;mix-blend-mode:normal" transform="translate(0 -924.362)"></path>
  <path fill="#ffe5b2" d="M39.103 50.103a6.6 6.6 0 0 1 8.635-6.278h.035a4.2 4.2 0 0 1 3.477-2.693l.1-.012a6.6 6.6 0 0 1 12.707.004 5.4 5.4 0 0 1 4.505 3.025l.04.053a4.2 4.2 0 0 1 3.62-.478l.054.012a5.4 5.4 0 0 1 9.743 4.517l-.018.07a4.2 4.2 0 1 1-2.704 7.63l-.081.102c-.729 1.382-1.962 2.383-3.407 2.767a5.136 5.136 0 0 1-4.23-.74h-.103a3 3 0 1 1-5.97.426v-.024a2.982 2.982 0 0 0-3-2.976c-1.661 0-3 1.327-3 2.976v4.706-2.164 4.706a2.982 2.982 0 0 1-3 2.976c-1.661 0-3-1.327-3-2.976V59.1a3.592 3.592 0 0 0-3.591-3.591h-.012A3.592 3.592 0 0 0 46.31 59.1l-.012.608v46.207a3.592 3.592 0 0 1-3.592 3.591H30.701a2.4 2.4 0 1 1 0-4.8h4.807a3.591 3.591 0 0 0 3.59-3.59V50.102"></path>
  <path fill="#fac180" d="M58.305 36.303c-.41 0-.812.045-1.205.118a6.596 6.596 0 0 1 5.154 4.694 5.402 5.402 0 0 1 4.505 3.024l.04.054c.609-.4 1.304-.61 2.013-.659a5.4 5.4 0 0 0-4.158-2.419 6.599 6.599 0 0 0-6.35-4.811zm19.533 4.81a5.4 5.4 0 0 0-1.505.14 5.41 5.41 0 0 1 1.04.35 5.402 5.402 0 0 1 2.842 6.64l-.017.07a4.2 4.2 0 0 1 2.133 7.617c-.383.271-.8.465-1.233.593a4.198 4.198 0 1 0 1.5-8.21l.017-.07a5.402 5.402 0 0 0-4.777-7.13zm-31.805 2.395a6.566 6.566 0 0 0-.918.11c.277.052.553.118.825.207h.032c.04-.107.095-.207.143-.31h-.082zm24.5.136c-.07.017-.14.031-.21.051.032.012.064.012.094.02l.054.012c.018-.03.042-.053.062-.082zM48.1 55.504a3.59 3.59 0 0 0-3.59 3.59l-.012.61V105.91a3.59 3.59 0 0 1-3.59 3.59h2.4a3.59 3.59 0 0 0 3.59-3.59V59.703l.012-.61a3.581 3.581 0 0 1 2.395-3.372 3.563 3.563 0 0 0-1.195-.218h-.012zm12.603 0c-1.662 0-3 1.327-3 2.976v7.247c0 1.224-.74 2.27-1.8 2.728.367.159.772.248 1.2.248 1.662 0 3-1.327 3-2.976V58.48c0-1.225.74-2.27 1.8-2.728a3.014 3.014 0 0 0-1.2-.249zm16.79.437-.081.104c-.729 1.382-1.96 2.384-3.406 2.768-.021.012-.044.012-.066.014a5.066 5.066 0 0 0 2.466-.014c1.212-.322 2.254-1.097 2.995-2.147a4.183 4.183 0 0 1-1.908-.724zm-7.718 2.13h-.103a3.001 3.001 0 0 1-1.23 2.872c-.17.121-.357.2-.544.281a2.986 2.986 0 0 0 2.944-.281 3.002 3.002 0 0 0 1.228-2.025 5.177 5.177 0 0 1-2.295-.85z"></path>
  <path fill="#ffe5b2" d="M81.103 108.303c0 .665-.536 1.2-1.2 1.2h-31.2c-.665 0-1.2-.535-1.2-1.2v-1.2h33.6v1.2z"></path>
  <path fill="#d99e45" d="M52.353 100.782a2.125 2.122 0 0 1-2.125 2.121 2.125 2.122 0 0 1-2.125-2.121 2.125 2.122 0 0 1 2.125-2.122 2.125 2.122 0 0 1 2.125 2.122zm24.1-6.337a.708.707 0 0 1-.709.708.708.707 0 0 1-.708-.708.708.707 0 0 1 .708-.707.708.707 0 0 1 .709.707zm-23.55-16.742a.6.6 0 0 1-.6.6.6.6 0 0 1-.6-.6.6.6 0 0 1 .6-.6.6.6 0 0 1 .6.6zm0 16.2a.6.6 0 0 1-.6.6.6.6 0 0 1-.6-.6.6.6 0 0 1 .6-.6.6.6 0 0 1 .6.6z"></path>
  <path fill="#ffe5b2" d="M59.503 75.303a3 3 0 0 1-3 3 3 3 0 0 1-3-3 3 3 0 0 1 3-3 3 3 0 0 1 3 3z"></path>
  <path fill="#fff" d="M51.703 65.103c.997 0 1.8.864 1.8 1.937v32.127c0 1.073-.803 1.936-1.8 1.936-.998 0-1.8-.863-1.8-1.936V67.04c0-1.073.802-1.937 1.8-1.937z" opacity=".35"></path>
  <path fill="#d99e45" d="M63.703 88.503a1.8 1.8 0 0 1-1.8 1.8 1.8 1.8 0 0 1-1.8-1.8 1.8 1.8 0 0 1 1.8-1.8 1.8 1.8 0 0 1 1.8 1.8z"></path>
  <path fill="#fff" d="M63.703 65.103c.997 0 1.8.864 1.8 1.937v32.127c0 1.073-.803 1.936-1.8 1.936-.998 0-1.8-.863-1.8-1.936V67.04c0-1.073.802-1.937 1.8-1.937z" opacity=".35"></path>
  <path fill="#004463" d="M51.703 988.965c-1.286 0-2.3 1.115-2.3 2.437v32.127c0 1.322 1.014 2.436 2.3 2.436 1.286 0 2.299-1.113 2.299-2.436v-32.127c0-1.322-1.013-2.437-2.299-2.437zm0 1c.709 0 1.299.614 1.299 1.437v32.127c0 .823-.59 1.436-1.299 1.436-.708 0-1.3-.612-1.3-1.436v-32.127c0-.823.592-1.437 1.3-1.437z" color="#000" font-family="sans-serif" font-weight="400" overflow="visible" style="line-height:normal;text-indent:0;text-align:start;text-decoration-line:none;text-decoration-style:solid;text-decoration-color:#000;text-transform:none;block-progression:tb;isolation:auto;mix-blend-mode:normal" transform="translate(0 -924.362)"></path>
  <path fill="#d99e45" d="M74.503 93.303a1.8 1.8 0 0 1-1.8 1.8 1.8 1.8 0 0 1-1.8-1.8 1.8 1.8 0 0 1 1.8-1.8 1.8 1.8 0 0 1 1.8 1.8zm1.2-15.9a1.5 1.5 0 0 1-1.5 1.5 1.5 1.5 0 0 1-1.5-1.5 1.5 1.5 0 0 1 1.5-1.5 1.5 1.5 0 0 1 1.5 1.5zm3.6-7.8a.9.9 0 0 1-.9.9.9.9 0 0 1-.9-.9.9.9 0 0 1 .9-.9.9.9 0 0 1 .9.9z"></path>
  <path fill="#fff" d="M75.703 65.103c.997 0 1.8.864 1.8 1.937v32.127c0 1.073-.803 1.936-1.8 1.936-.998 0-1.8-.863-1.8-1.936V67.04c0-1.073.802-1.937 1.8-1.937z" opacity=".35"></path>
  <path fill="#004463" d="M63.703 988.965c-1.286 0-2.3 1.115-2.3 2.437v32.127c0 1.322 1.014 2.436 2.3 2.436 1.286 0 2.299-1.113 2.299-2.436v-32.127c0-1.322-1.013-2.437-2.299-2.437zm0 1c.709 0 1.299.614 1.299 1.437v32.127c0 .823-.59 1.436-1.299 1.436-.708 0-1.3-.612-1.3-1.436v-32.127c0-.823.592-1.437 1.3-1.437zm12-1c-1.286 0-2.3 1.115-2.3 2.437v32.127c0 1.322 1.014 2.436 2.3 2.436 1.286 0 2.299-1.113 2.299-2.436v-32.127c0-1.322-1.013-2.437-2.299-2.437zm0 1c.709 0 1.299.614 1.299 1.437v32.127c0 .823-.59 1.436-1.299 1.436-.708 0-1.3-.612-1.3-1.436v-32.127c0-.823.592-1.437 1.3-1.437z" color="#000" font-family="sans-serif" font-weight="400" overflow="visible" style="line-height:normal;text-indent:0;text-align:start;text-decoration-line:none;text-decoration-style:solid;text-decoration-color:#000;text-transform:none;block-progression:tb;isolation:auto;mix-blend-mode:normal" transform="translate(0 -924.362)"></path>
  <path fill="#fff" d="M58.303 72.303a3 3 0 0 0-.959.162 3 3 0 0 1 2.039 2.838 3 3 0 0 1-2.041 2.839 3 3 0 0 0 .96.161 3 3 0 0 0 3-3 3 3 0 0 0-3-3z"></path>
  <path fill="#fac180" d="M56.503 72.303a3 3 0 0 0-.896.14 3 3 0 0 1 2.096 2.86 3 3 0 0 1-2.105 2.86 3 3 0 0 0 .905.14 3 3 0 0 0 3-3 3 3 0 0 0-3-3z"></path>
  <path fill="#fff" d="M56.503 72.303a3 3 0 0 1 .895.14 3 3 0 0 0-2.095 2.86 3 3 0 0 0 2.104 2.86 3 3 0 0 1-.904.14 3 3 0 0 1-3-3 3 3 0 0 1 3-3zm1.202-36a6.6 6.6 0 0 0-6.356 4.812l-.099.012a4.194 4.194 0 0 0-3.34 2.393 6.568 6.568 0 0 1 1.627.305h.035a4.202 4.202 0 0 1 3.478-2.693l.098-.012a6.592 6.592 0 0 1 5.445-4.737 6.593 6.593 0 0 0-.888-.075zm19.533 4.81a5.393 5.393 0 0 0-4.826 2.42 4.265 4.265 0 0 1 1.605.181l.054.012A5.377 5.377 0 0 1 77.79 41.2c-.184-.03-.367-.076-.551-.087zm-31.805 2.395a6.6 6.6 0 0 0-6.33 6.595V101.111a3.59 3.59 0 0 1-3.591 3.59h1.8a3.59 3.59 0 0 0 3.59-3.59V50.103a6.601 6.601 0 0 1 2.72-5.339 6.588 6.588 0 0 1 2.962-1.19 6.615 6.615 0 0 0-1.151-.066zm25.856.012c-.415-.039-.827.012-1.233.091.108.17.211.344.3.527l.04.054c.431-.282.91-.458 1.402-.567-.17-.037-.338-.09-.509-.105zM51.7 55.503c-.31 0-.607.053-.895.127a3.582 3.582 0 0 1 2.698 3.464V65.727a2.982 2.982 0 0 0 3 2.976c.315 0 .614-.06.9-.15-1.217-.379-2.1-1.49-2.1-2.826V59.094c0-1.984-1.61-3.59-3.593-3.59h-.012zm12.603 0c-.317 0-.615.062-.9.15 1.216.38 2.1 1.492 2.1 2.827v.024a3 3 0 0 0 1.624 2.667 2.994 2.994 0 0 0 2.301.174c-.168-.052-.341-.092-.501-.174a3 3 0 0 1-1.624-2.667v-.024a2.982 2.982 0 0 0-3-2.977zm16.79.439-.081.103c-.099.186-.227.346-.343.518.635.161 1.296.17 1.934.03a4.174 4.174 0 0 1-1.51-.652zm-7.718 2.13h-.103c.036.247.029.49 0 .731a5.057 5.057 0 0 0 2.114.09 5.214 5.214 0 0 1-2.016-.826zm-42.672 46.63a2.4 2.4 0 1 0 0 4.8h1.8a2.4 2.4 0 0 1 0-4.8h-1.8z"></path>
  <path fill="#004463" d="M44.318 967.502a7.098 7.098 0 0 0-5.714 6.963.5.5 0 1 0 1 0 6.098 6.098 0 0 1 7.677-5.893.5.5 0 1 0 .26-.965 7.097 7.097 0 0 0-3.223-.105zm37.518 4.666a4.684 4.684 0 0 0-1.518.205.5.5 0 0 0 .295.957 3.696 3.696 0 0 1 4.194 1.522 3.695 3.695 0 0 1-.319 4.449 3.695 3.695 0 0 1-4.367.908.5.5 0 1 0-.428.904 4.703 4.703 0 0 0 5.547-1.154 4.704 4.704 0 0 0 .405-5.652 4.704 4.704 0 0 0-3.81-2.139z" color="#000" font-family="sans-serif" font-weight="400" overflow="visible" style="line-height:normal;text-indent:0;text-align:start;text-decoration-line:none;text-decoration-style:solid;text-decoration-color:#000;text-transform:none;block-progression:tb;isolation:auto;mix-blend-mode:normal" transform="translate(0 -924.362)"></path>
  <path fill="#004463" d="M76.508 964.979a5.91 5.91 0 0 0-5.178 3.945.5.5 0 1 0 .945.33 4.893 4.893 0 0 1 6.223-3.022 4.892 4.892 0 0 1 3.043 6.211.5.5 0 0 0 .947.323 5.908 5.908 0 0 0-3.666-7.479 5.865 5.865 0 0 0-2.314-.308z" color="#000" font-family="sans-serif" font-weight="400" overflow="visible" style="line-height:normal;text-indent:0;text-align:start;text-decoration-line:none;text-decoration-style:solid;text-decoration-color:#000;text-transform:none;block-progression:tb;isolation:auto;mix-blend-mode:normal" transform="translate(0 -924.362)"></path>
  <path fill="#004463" d="M69.785 967.5a4.697 4.697 0 0 0-2.25 1.285.5.5 0 1 0 .717.7 3.697 3.697 0 0 1 3.809-.934.5.5 0 1 0 .314-.95 4.7 4.7 0 0 0-2.59-.101zm-12.765-7.303a7.108 7.108 0 0 0-6.395 6.494.5.5 0 1 0 .998.08 6.094 6.094 0 0 1 5.492-5.578 6.096 6.096 0 0 1 6.461 4.422.5.5 0 1 0 .963-.27 7.107 7.107 0 0 0-7.52-5.148z" color="#000" font-family="sans-serif" font-weight="400" overflow="visible" style="line-height:normal;text-indent:0;text-align:start;text-decoration-line:none;text-decoration-style:solid;text-decoration-color:#000;text-transform:none;block-progression:tb;isolation:auto;mix-blend-mode:normal" transform="translate(0 -924.362)"></path>
  <path fill="#004463" d="M51.23 964.99a.5.5 0 0 0-.033.002 4.7 4.7 0 0 0-4.152 5.307.5.5 0 0 0 .992-.135 3.701 3.701 0 0 1 3.268-4.178.5.5 0 0 0-.075-.996zm13.204.02a5.902 5.902 0 0 0-5.239 2.047.5.5 0 0 0 .764.646 4.897 4.897 0 0 1 8.148 1.018.5.5 0 0 0 .9-.438 5.904 5.904 0 0 0-4.573-3.273zm-1.932 14.355c-1.928 0-3.5 1.557-3.5 3.477v4.705a.5.5 0 1 0 1 0v-4.705c0-1.379 1.104-2.477 2.5-2.477s2.5 1.098 2.5 2.477a.5.5 0 1 0 1 0c0-1.92-1.572-3.477-3.5-3.477zm17.393-2.277a.5.5 0 0 0-.493.508c0 2.234-1.32 4.21-3.27 4.949-1.947.738-4.107.101-5.427-1.62a.5.5 0 1 0-.795.61c1.571 2.048 4.219 2.84 6.578 1.945 2.36-.893 3.914-3.255 3.914-5.884a.5.5 0 0 0-.507-.508z" color="#000" font-family="sans-serif" font-weight="400" overflow="visible" style="line-height:normal;text-indent:0;text-align:start;text-decoration-line:none;text-decoration-style:solid;text-decoration-color:#000;text-transform:none;block-progression:tb;isolation:auto;mix-blend-mode:normal" transform="translate(0 -924.362)"></path>
  <path fill="#004463" d="M65.494 982.36a.5.5 0 0 0-.492.505 3.502 3.502 0 0 0 5.25 3.031 3.502 3.502 0 0 0 1.75-3.03.5.5 0 1 0-1 0 2.5 2.5 0 1 1-5 0 .5.5 0 0 0-.508-.507zm-8.992 13.806a3.508 3.508 0 0 0-3.5 3.5c0 1.927 1.573 3.5 3.5 3.5s3.5-1.573 3.5-3.5-1.573-3.5-3.5-3.5zm0 1c1.387 0 2.5 1.113 2.5 2.5s-1.113 2.5-2.5 2.5a2.492 2.492 0 0 1-2.5-2.5c0-1.387 1.113-2.5 2.5-2.5z" color="#000" font-family="sans-serif" font-weight="400" overflow="visible" style="line-height:normal;text-indent:0;text-align:start;text-decoration-line:none;text-decoration-style:solid;text-decoration-color:#000;text-transform:none;block-progression:tb;isolation:auto;mix-blend-mode:normal" transform="translate(0 -924.362)"></path>
  <path fill="#fff" d="M47.503 107.103v1.2c0 .665.535 1.2 1.2 1.2h1.8c-.665 0-1.2-.535-1.2-1.2v-1.2h-1.8z"></path>
  <path fill="#004463" d="M39.088 973.953a.5.5 0 0 0-.494.506v51.014a3.081 3.081 0 0 1-3.09 3.09h-4.807a2.899 2.899 0 1 0 0 5.8h12.006a4.1 4.1 0 0 0 4.092-4.091V984.07l.012-.604a.5.5 0 0 0 0-.01 3.084 3.084 0 0 1 3.091-3.092h.012a3.084 3.084 0 0 1 3.092 3.092v6.631c0 1.92 1.572 3.477 3.5 3.477s3.5-1.558 3.5-3.477v-4.705a.5.5 0 1 0-1 0v4.705c0 1.379-1.104 2.477-2.5 2.477s-2.5-1.098-2.5-2.477v-6.631a4.1 4.1 0 0 0-4.092-4.092h-.012a4.1 4.1 0 0 0-4.091 4.092l-.012.598a.5.5 0 0 0 0 .01v46.207a3.084 3.084 0 0 1-3.092 3.092H30.697a1.9 1.9 0 0 1 0-3.801h4.807a4.096 4.096 0 0 0 4.09-4.09v-51.014a.5.5 0 0 0-.506-.506z" color="#000" font-family="sans-serif" font-weight="400" overflow="visible" style="line-height:normal;text-indent:0;text-align:start;text-decoration-line:none;text-decoration-style:solid;text-decoration-color:#000;text-transform:none;block-progression:tb;isolation:auto;mix-blend-mode:normal" transform="translate(0 -924.362)"></path>
  <path fill="#fac180" d="M81.103 107.103v1.2c0 .665-.536 1.2-1.2 1.2h-1.8c.664 0 1.2-.535 1.2-1.2v-1.2h1.8z"></path>
  <path fill="#004463" d="M47.002 1030.965v2.201h.209c.232.663.754 1.2 1.492 1.2h31.2c.932 0 1.699-.767 1.699-1.7v-1.701h-34.6zm1 1h32.6v.701c0 .397-.303.7-.7.7H48.703a.688.688 0 0 1-.701-.7v-.701z" color="#000" font-family="sans-serif" font-weight="400" overflow="visible" style="line-height:normal;text-indent:0;text-align:start;text-decoration-line:none;text-decoration-style:solid;text-decoration-color:#000;text-transform:none;block-progression:tb;isolation:auto;mix-blend-mode:normal" transform="translate(0 -924.362)"></path>
  <path fill="#d99e45" d="M69.269 71.318a.6.6 0 0 1-.6.6.6.6 0 0 1-.6-.6.6.6 0 0 1 .6-.6.6.6 0 0 1 .6.6zm-.766 15.385a.6.6 0 0 1-.6.6.6.6 0 0 1-.6-.6.6.6 0 0 1 .6-.6.6.6 0 0 1 .6.6zM77.126 104.81a.707.708 90 0 1 .709-.707.707.708 90 0 1 .708.708.707.708 90 0 1-.708.707.707.708 90 0 1-.709-.707zm-9.823-1.905a1.198 1.2 90 0 1 1.2-1.198 1.198 1.2 90 0 1 1.2 1.198 1.198 1.2 90 0 1-1.2 1.198 1.198 1.2 90 0 1-1.2-1.198zM81.869 85.944a.9.9 0 0 1-.9.9.9.9 0 0 1-.9-.9.9.9 0 0 1 .9-.9.9.9 0 0 1 .9.9zm-22.8 18a.9.9 0 0 1-.9.9.9.9 0 0 1-.9-.9.9.9 0 0 1 .9-.9.9.9 0 0 1 .9.9zm23.4-7.426a.6.6 0 0 1-.6.6.6.6 0 0 1-.6-.6.6.6 0 0 1 .6-.6.6.6 0 0 1 .6.6zm0-32.4a.6.6 0 0 1-.6.6.6.6 0 0 1-.6-.6.6.6 0 0 1 .6-.6.6.6 0 0 1 .6.6zM57.103 83.403a.9.9 0 0 1-.9.9.9.9 0 0 1-.9-.9.9.9 0 0 1 .9-.9.9.9 0 0 1 .9.9z"></path>
  <path fill="#004463" d="M84.703 986.564a.5.5 0 1 0 0 1h6.6c4.338 0 7.9 3.563 7.9 7.9v19.202c0 4.338-3.562 7.898-7.9 7.898h-6.6a.5.5 0 1 0 0 1h6.6c4.886 0 8.9-4.012 8.9-8.898v-19.201c0-4.886-4.014-8.9-8.9-8.9h-6.6zm0 4.801a.5.5 0 1 0 0 1h6.6c1.78 0 3.1 1.32 3.1 3.1v19.201c0 1.78-1.32 3.1-3.1 3.1h-6.6a.5.5 0 1 0 0 1h6.6c2.292 0 4.1-1.808 4.1-4.1v-19.201c0-2.292-1.808-4.1-4.1-4.1h-6.6z" color="#000" font-family="sans-serif" font-weight="400" overflow="visible" style="line-height:normal;text-indent:0;text-align:start;text-decoration-line:none;text-decoration-style:solid;text-decoration-color:#000;text-transform:none;block-progression:tb;isolation:auto;mix-blend-mode:normal" transform="translate(0 -924.362)"></path>
</svg>
