<svg xmlns="http://www.w3.org/2000/svg" width="128" height="128" id="blue">
  <path fill="#c9d6e5" d="M55.821 84.5H38.717l1.07-3.01c1.543.672 4.395 1.086 7.482 1.086 3.087 0 5.939-.414 7.482-1.087z" opacity=".5"></path>
  <path fill="#99b5ce" d="m54.753 81.489 1.068 3.011h-2.5l-.845-2.386c.891-.172 1.698-.373 2.277-.625zm-14.965 0c1.33.579 3.648.948 6.233 1.044-.416.016-.822.043-1.25.043-1.928 0-3.722-.177-5.205-.462z" opacity=".5"></path>
  <path fill="#fff" d="M39.786 81.489 38.718 84.5h2.5l.846-2.386c-.892-.172-1.698-.373-2.278-.625zm14.965 0c-1.33.579-3.647.948-6.232 1.044.416.016.822.043 1.25.043 1.927 0 3.722-.177 5.205-.462l-.223-.625z"></path>
  <path fill="#c9d6e5" fill-rule="evenodd" d="M55.078 81.286a13.627 13.627 0 0 0 3.96-9.61V70.6c-.24-5.88-2.14-17.1-2.14-17.1H37.64S35.74 64.72 35.5 70.6v1.076c0 3.605 1.424 7.061 3.96 9.61"></path>
  <path fill="#99b5ce" fill-rule="evenodd" d="M56.797 53.5s1.9 11.22 2.14 17.1v1.076c0 3.604-1.423 7.06-3.958 9.61h-2.5a13.624 13.624 0 0 0 3.959-9.61V70.6c-.24-5.88-2.14-17.1-2.14-17.1z"></path>
  <path fill="#fff" fill-rule="evenodd" d="M37.74 53.5s-1.9 11.22-2.141 17.1v1.076c0 3.604 1.423 7.06 3.959 9.61h2.5a13.624 13.624 0 0 1-3.96-9.61V70.6c.241-5.88 2.142-17.1 2.142-17.1z"></path>
  <path fill="#9e343e" fill-rule="evenodd" d="M35.5 71.135v.541c0 3.605 1.424 7.062 3.96 9.61 0 0 5.166 1.37 7.81 1.37 2.642 0 7.808-1.37 7.808-1.37a13.627 13.627 0 0 0 3.96-9.61v-.54z"></path>
  <path fill="#74343e" fill-rule="evenodd" d="M59.038 71.135v.541c0 3.604-1.425 7.06-3.96 9.61 0 0-5.167 1.37-7.81 1.37-.383 0-.828-.035-1.294-.084 2.745-.287 5.117.11 6.513-1.287a13.624 13.624 0 0 0 3.96-9.609v-.541z"></path>
  <path fill="#fff" fill-rule="evenodd" d="M35.5 71.135v.541c0 3.604 1.424 7.06 3.96 9.61 0 0 5.166 1.37 7.809 1.37.383 0 .828-.035 1.295-.084-2.747-.29-5.473-.246-6.514-1.287a13.624 13.624 0 0 1-3.96-9.609v-.541z"></path>
  <path fill="#004463" d="M56.793 1000.348a.5.5 0 0 0-.207.96c1.681.733 4.552 1.13 7.684 1.13 3.131 0 6-.397 7.681-1.13a.5.5 0 1 0-.4-.915c-1.406.612-4.24 1.044-7.281 1.044-3.042 0-5.878-.432-7.284-1.044a.5.5 0 0 0-.193-.045z" color="#000" font-family="sans-serif" font-weight="400" overflow="visible" style="line-height:normal;text-indent:0;text-align:start;text-decoration-line:none;text-decoration-style:solid;text-decoration-color:#000;text-transform:none;block-progression:tb;isolation:auto;mix-blend-mode:normal" transform="translate(-17 -919.362)"></path>
  <path fill="#004463" fill-rule="evenodd" d="M54.639 972.361a.5.5 0 0 0-.493.418s-1.902 11.2-2.146 17.162a.5.5 0 0 0 0 .02v1.078c0 3.736 1.476 7.318 4.105 9.961a.5.5 0 0 0 .03.027c.12.103.258.197.449.281a.5.5 0 0 0 .004 0c1.681.733 4.55 1.127 7.682 1.127 3.128 0 5.993-.394 7.675-1.125.28-.117.467-.293.467-.293a.5.5 0 0 0 .02-.019 14.123 14.123 0 0 0 4.105-9.96l.002-1.079a.5.5 0 0 0-.002-.02c-.244-5.96-2.144-17.16-2.144-17.16a.5.5 0 0 0-.495-.418h-19.26zm.43 1H73.47c.116.696 1.839 11.013 2.068 16.621l-.002 1.057c0 3.468-1.37 6.79-3.805 9.244a.68.68 0 0 1-.171.106.5.5 0 0 0-.01 0c-1.406.612-4.24 1.045-7.282 1.045s-5.877-.433-7.283-1.045c-.14-.062-.105-.045-.185-.116A13.105 13.105 0 0 1 53 991.04v-1.057c.23-5.608 1.952-15.925 2.068-16.62z" color="#000" font-family="sans-serif" font-weight="400" overflow="visible" style="line-height:normal;text-indent:0;text-align:start;text-decoration-line:none;text-decoration-style:solid;text-decoration-color:#000;text-transform:none;block-progression:tb;isolation:auto;mix-blend-mode:normal" transform="translate(-17 -919.362)"></path>
  <path fill="#004463" d="M56.791 1000.352a.5.5 0 0 0-.475.332l-1.07 3.011a.5.5 0 0 0 .47.666h17.106a.5.5 0 0 0 .471-.666l-1.07-3.011a.5.5 0 0 0-.672-.291c-1.406.612-4.24 1.044-7.281 1.044-3.043 0-5.878-.432-7.284-1.044a.5.5 0 0 0-.195-.041zm.316 1.091c1.716.626 4.278.995 7.163.995 2.883 0 5.444-.37 7.16-.995l.681 1.918H56.426l.681-1.918z" color="#000" font-family="sans-serif" font-weight="400" overflow="visible" style="line-height:normal;text-indent:0;text-align:start;text-decoration-line:none;text-decoration-style:solid;text-decoration-color:#000;text-transform:none;block-progression:tb;isolation:auto;mix-blend-mode:normal" transform="translate(-17 -919.362)"></path>
  <g transform="translate(-1396.73 -3394.324)">
    <path fill="#c9d6e5" d="M1486.283 3478.824h-17.104l1.07-3.01c1.543.672 4.395 1.086 7.482 1.086 3.087 0 5.939-.414 7.482-1.087z" opacity=".5"></path>
    <path fill="#99b5ce" d="m1485.215 3475.812 1.068 3.012h-2.5l-.846-2.387c.892-.171 1.698-.372 2.278-.625zm-14.965 0c1.33.58 3.647.949 6.232 1.045-.416.016-.822.043-1.25.043-1.927 0-3.722-.178-5.205-.463z" opacity=".5"></path>
    <path fill="#fff" d="m1470.248 3475.812-1.068 3.012h2.5l.845-2.387c-.891-.171-1.698-.372-2.277-.625zm14.965 0c-1.33.58-3.648.949-6.233 1.045.417.016.822.043 1.25.043 1.928 0 3.722-.178 5.206-.463l-.223-.624z"></path>
    <path fill="#c9d6e5" fill-rule="evenodd" d="M1485.54 3475.61a13.626 13.626 0 0 0 3.96-9.61v-1.076c-.24-5.88-2.14-17.1-2.14-17.1h-19.259s-1.899 11.22-2.14 17.1l.001 1.077c0 3.604 1.424 7.06 3.96 9.61"></path>
    <path fill="#99b5ce" fill-rule="evenodd" d="M1487.259 3447.825s1.9 11.219 2.14 17.1V3466c0 3.605-1.423 7.06-3.958 9.61h-2.5a13.624 13.624 0 0 0 3.959-9.61v-1.076c-.24-5.88-2.141-17.1-2.141-17.1z"></path>
    <path fill="#fff" fill-rule="evenodd" d="M1468.201 3447.825s-1.9 11.219-2.14 17.1V3466c0 3.605 1.423 7.06 3.959 9.61h2.5a13.624 13.624 0 0 1-3.96-9.61v-1.076c.241-5.88 2.141-17.1 2.141-17.1z" opacity=".5"></path>
    <path fill="#f9b94e" fill-rule="evenodd" d="M1465.962 3465.46v.54c0 3.605 1.424 7.062 3.96 9.61 0 0 5.166 1.37 7.809 1.37s7.81-1.37 7.81-1.37a13.627 13.627 0 0 0 3.959-9.61v-.54z"></path>
    <path fill="#d99e45" fill-rule="evenodd" d="M1489.5 3465.46v.54c0 3.605-1.425 7.06-3.961 9.61 0 0-5.166 1.37-7.809 1.37-.383 0-.828-.034-1.295-.083 2.746-.287 5.118.11 6.514-1.287a13.624 13.624 0 0 0 3.96-9.61v-.54z"></path>
    <path fill="#fff" fill-rule="evenodd" d="M1465.96 3465.46v.54c0 3.605 1.426 7.06 3.962 9.61 0 0 5.166 1.37 7.808 1.37.384 0 .83-.034 1.295-.083-2.746-.29-5.472-.246-6.513-1.288a13.624 13.624 0 0 1-3.96-9.609v-.54z"></path>
    <path fill="none" stroke="#004463" stroke-linecap="round" stroke-linejoin="round" d="M1485.213 3475.813a8.64 2.173 0 0 1-7.482 1.087 8.64 2.173 0 0 1-7.483-1.087"></path>
    <path fill="none" stroke="#004463" stroke-linecap="round" stroke-linejoin="round" d="M1485.54 3475.61a13.626 13.626 0 0 0 3.96-9.61v-1.076c-.24-5.88-2.14-17.1-2.14-17.1h-19.259s-1.899 11.22-2.14 17.1l.001 1.077c0 3.604 1.424 7.06 3.96 9.61a.996.996 0 0 0 .326.202c1.544.673 4.396 1.087 7.483 1.087 3.087 0 5.939-.414 7.482-1.087.187-.077.327-.203.327-.203z"></path>
    <path fill="none" stroke="#004463" stroke-linecap="round" stroke-linejoin="round" d="M1486.283 3478.824h-17.104l1.07-3.01c1.543.672 4.395 1.086 7.482 1.086 3.087 0 5.939-.414 7.482-1.087z"></path>
    <circle cx="1473.553" cy="3469.1" r="1" fill="#d99e45"></circle>
    <circle cx="1480.553" cy="3472.1" r="1" fill="#d99e45"></circle>
    <circle cx="1476.053" cy="3474.6" r=".5" fill="#d99e45"></circle>
    <circle cx="1479.053" cy="3468.1" r=".5" fill="#d99e45"></circle>
    <circle cx="1484.053" cy="3469.6" r=".5" fill="#d99e45"></circle>
  </g>
  <g transform="translate(-1077.6 -3867.594)">
    <path fill="#b0c4da" d="M1127.583 3915.433h30.516l-2.04 34.585h-26.435z"></path>
    <path fill="#3a90cd" d="m1128.004 3922.553 1.622 27.466h26.433l1.621-27.466h-29.676z"></path>
    <path fill="#fff" d="m1128.004 3922.553 1.622 27.466h2.63l-1.62-27.466h-2.632z"></path>
    <path fill="#b0c4da" fill-rule="evenodd" d="M1129.612 3950.014h26.46v4.08h-26.46z"></path>
    <path fill="#fff" fill-rule="evenodd" d="M1129.614 3950.015v4.078h3.044v-4.077h-3.044z"></path>
    <path fill="#fff" d="m1127.581 3915.434 2.043 34.583h3.052l-2.039-34.583h-3.056z"></path>
    <path fill="#99b5ce" d="m1158.1 3915.434-2.043 34.583h-3.052l2.039-34.583h3.055z"></path>
    <path fill="#1c7bcc" d="m1154.63 3922.555-1.621 27.466h3.048l1.621-27.466h-3.048z"></path>
    <path fill="#99b5ce" fill-rule="evenodd" d="M1153.021 3950.013v4.08h3.052v-4.08h-3.052z"></path>
    <path fill="none" stroke="#004463" stroke-linecap="round" stroke-linejoin="round" d="M1127.583 3915.433h30.516l-2.04 34.585h-26.435zM1129.612 3950.025h26.449v4.069h-26.449z"></path>
    <ellipse cx="-1143.676" cy="-3937.631" fill="#1c7bcc" rx="1.201" ry="1.199" transform="scale(-1)"></ellipse>
    <circle cx="1137.247" cy="3930.183" r="1.526" fill="#1c7bcc"></circle>
    <circle cx="1135.721" cy="3943.916" r="1.017" fill="#1c7bcc"></circle>
    <circle cx="1145.386" cy="3945.442" r="1.526" fill="#1c7bcc"></circle>
    <circle cx="1151.998" cy="3939.847" r="1.017" fill="#1c7bcc"></circle>
    <circle cx="1149.455" cy="3931.2" r="1.526" fill="#1c7bcc"></circle>
    <path fill="none" stroke="#004463" stroke-linecap="round" stroke-linejoin="round" d="M1123.989 3915.862h-1.481m5.992-5.993v1.482m-4.237.274 1.047 1.047"></path>
  </g>
</svg>
