<svg xmlns="http://www.w3.org/2000/svg" width="128" height="128" id="orange">
  <path fill="#e76d0f" d="M48.101 44a30.389 30.389 0 0 1-.158 15.485l-2.986 12.016-1.78 7.154a21.502 21.502 0 0 0-.244 10.096 21.48 21.48 0 0 0 42.02 0c.703-3.268.659-6.72-.245-10.096l-1.779-7.154-2.986-12.016a30.38 30.38 0 0 1-.158-15.484H48.1z"></path>
  <path fill="#c9d5e5" d="M79.034 125.296v.204h-30v-.5c0-1.385 1.115-2.5 2.5-2.5h25c1.385 0 2.5 1.115 2.5 2.5zm-21.993-20.683c2.945.796 4.993 3.487 4.993 6.562v2.763a8.865 8.865 0 0 1-6.578 8.56H72.61a8.866 8.866 0 0 1-6.579-8.56v-2.763c0-3.074 2.048-5.766 4.993-6.562"></path>
  <path fill="#a9bfd4" fill-opacity=".753" d="M70.843 104.613c-2.946.796-4.993 3.488-4.993 6.563v2.762a8.865 8.865 0 0 0 6.578 8.56h-1.5a8.865 8.865 0 0 1-6.578-8.56v-2.762c0-3.075 2.047-5.767 4.993-6.563h1.5zM76.35 122.5c1.385 0 2.5 1.115 2.5 2.5v.5h-1.5v-.5c0-1.385-1.115-2.5-2.5-2.5h1.5z"></path>
  <path fill="#fff" d="M57.042 104.614c2.945.795 4.992 3.487 4.992 6.562v2.762a8.865 8.865 0 0 1-6.578 8.56h1.5a8.865 8.865 0 0 0 6.578-8.56v-2.762c0-3.075-2.047-5.767-4.992-6.562h-1.5zM51.534 122.5a2.495 2.495 0 0 0-2.5 2.5v.5h1.5v-.5c0-1.385 1.115-2.5 2.5-2.5h-1.5z"></path>
  <path fill="#004463" d="M57.023 1028.473a.5.5 0 0 0-.113.984c2.728.737 4.623 3.228 4.623 6.08v2.762a8.36 8.36 0 0 1-6.207 8.078.5.5 0 1 0 .26.967 9.37 9.37 0 0 0 6.947-9.045v-2.762c0-3.297-2.198-6.19-5.361-7.045a.5.5 0 0 0-.149-.019z" color="#000" font-family="sans-serif" font-weight="400" overflow="visible" style="line-height:normal;text-indent:0;text-align:start;text-decoration-line:none;text-decoration-style:solid;text-decoration-color:#000;text-transform:none;block-progression:tb;isolation:auto;mix-blend-mode:normal" transform="translate(0 -924.362)"></path>
  <path fill="#e76d0f" d="M42.932 88.75a21.48 21.48 0 0 0 42.02 0h-42.02z"></path>
  <path fill="#cf4a18" fill-rule="evenodd" d="m78.935 958.55-5.656 22.38-2.953-.78 5.839-23.223.012-.071c-.547-.317-.725-1.027-.399-1.593.247-.429.71-.648 1.157-.592l-.012-.013a1.664 1.664 0 0 1-.086-1.92 1.656 1.656 0 0 1 1.78-.717l.01-.013a1.691 1.691 0 0 1 .412-2.143 1.684 1.684 0 0 1 2.178.054l-.045-.075c-.316-.548-.116-1.253.449-1.58.564-.326 1.273-.148 1.588.4h.071l13.307-4.795c1.59-.587 2.654 2.31.742 2.973l-12.51 4.595-.01.018c.316.548.116 1.253-.449 1.58-.564.326-1.272.148-1.588-.4l-.01.022c.438.44.427 1.16-.025 1.613-.453.454-1.17.465-1.608.026h-.01c.533.34.682 1.056.333 1.609-.348.552-1.058.724-1.592.385l.26.131c.546.317.724 1.028.398 1.594-.326.566-1.028.766-1.575.45z" color="#000" font-family="sans-serif" font-weight="400" overflow="visible" style="line-height:normal;text-indent:0;text-align:start;text-decoration-line:none;text-decoration-style:solid;text-decoration-color:#000;text-transform:none;block-progression:tb;isolation:auto;mix-blend-mode:normal" transform="translate(0 -924.362)"></path>
  <path fill="#fff" fill-rule="evenodd" d="M97.18 944a1.302 1.302 0 0 0-.293.07l-13.307 4.795h-.07c-.316-.549-1.024-.727-1.588-.4-.564.326-.765 1.031-.45 1.58l.046.073a1.684 1.684 0 0 0-2.178-.053 1.691 1.691 0 0 0-.414 2.143l-.01.012a1.657 1.657 0 0 0-1.78.719 1.664 1.664 0 0 0 .087 1.92l.012.012a1.173 1.173 0 0 0-1.157.591c-.325.566-.148 1.277.399 1.594l-.012.07-5.84 23.225.729.191 5.71-22.715.013-.072c-.547-.316-.725-1.025-.399-1.591.247-.429.71-.649 1.158-.592l-.012-.014a1.665 1.665 0 0 1-.088-1.92 1.656 1.656 0 0 1 1.78-.717l.012-.014a1.69 1.69 0 0 1 .412-2.143 1.683 1.683 0 0 1 2.178.055l-.045-.076c-.316-.548-.116-1.253.449-1.58.564-.326 1.272-.148 1.588.4h.07l13.308-4.794c.36-.133.69-.08.967.078-.246-.52-.702-.914-1.275-.848zM80.773 957.19l.162.082c0-.01-.01-.017-.012-.025-.05-.022-.103-.027-.15-.057z" color="#000" font-family="sans-serif" font-weight="400" overflow="visible" style="line-height:normal;text-indent:0;text-align:start;text-decoration-line:none;text-decoration-style:solid;text-decoration-color:#000;text-transform:none;block-progression:tb;isolation:auto;mix-blend-mode:normal" transform="translate(0 -924.362)"></path>
  <path fill="#004463" fill-rule="evenodd" d="m96.414 943.4-13.143 4.737c-.52-.478-1.255-.678-1.9-.305-.504.292-.707.81-.742 1.352-.656-.175-1.348-.156-1.904.293-.643.518-.792 1.33-.643 2.107-.662.051-1.295.306-1.666.885-.36.562-.337 1.22-.133 1.83-.378.128-.725.343-.94.715-.372.647-.172 1.387.307 1.908l-5.81 23.107a.5.5 0 0 0 .357.606l2.953.78a.5.5 0 0 0 .614-.362l5.58-22.076c.631.06 1.27-.127 1.607-.713.27-.47.225-.986.033-1.453.346-.124.681-.307.891-.64.217-.343.248-.741.201-1.118.367-.04.737-.15 1.016-.43.275-.276.38-.642.422-1.004.367.055.754.047 1.097-.152.606-.351.793-1.024.701-1.678l12.18-4.475c.598-.207 1.02-.63 1.215-1.11.195-.482.185-1 .043-1.464-.142-.463-.42-.883-.826-1.16a1.668 1.668 0 0 0-1.51-.18zm.346.938c.255-.094.422-.054.601.068.18.122.349.357.432.627.083.27.08.563-.014.793-.093.23-.257.419-.615.543a.5.5 0 0 0-.008.004l-12.51 4.594a.5.5 0 0 0-.263.226l-.012.02a.5.5 0 0 0 .004.492c.178.309.073.7-.266.897-.339.196-.726.092-.904-.217a.5.5 0 0 0-.892.05l-.01.024a.5.5 0 0 0 .105.55c.243.245.243.64-.025.91-.27.269-.658.268-.9.024a.5.5 0 0 0-.354-.146h-.01a.5.5 0 0 0-.27.922c.3.19.39.585.18.918a.5.5 0 0 0 0 .002c-.21.332-.599.417-.898.228h-.002l-.043-.023a.5.5 0 0 0-.494.87c.015.01.035-.002.05.007l-.007.016.234.119c.305.178.41.57.215.91-.196.34-.584.443-.89.266a.5.5 0 0 0-.749.384l-.004.043-5.525 21.86-1.984-.526 5.718-22.744a.5.5 0 0 0 .008-.039l.012-.07a.5.5 0 0 0-.242-.516c-.307-.177-.413-.57-.217-.912a.67.67 0 0 1 .662-.344.5.5 0 0 0 .445-.816v-.002a1.162 1.162 0 0 1-.06-1.342 1.152 1.152 0 0 1 1.242-.5.5.5 0 0 0 .512-.182l.01-.013a.5.5 0 0 0 .04-.549 1.187 1.187 0 0 1 .291-1.51 1.178 1.178 0 0 1 1.532.04.5.5 0 0 0 .761-.632l-.04-.068c-.178-.309-.074-.7.265-.896.339-.197.727-.092.904.216a.5.5 0 0 0 .434.25h.07a.5.5 0 0 0 .17-.029l13.309-4.795a.5.5 0 0 0 .002-.002zM80.775 954.65c.095.095.236.073.346.14v.003l-.346-.143z" color="#000" font-family="sans-serif" font-weight="400" overflow="visible" style="line-height:normal;text-indent:0;text-align:start;text-decoration-line:none;text-decoration-style:solid;text-decoration-color:#000;text-transform:none;block-progression:tb;isolation:auto;mix-blend-mode:normal" transform="translate(0 -924.362)"></path>
  <path fill="#f8c11a" fill-rule="evenodd" d="M61.645 37.5a16 16 0 0 1-14.953 15.966 16 16 0 0 1-16.91-13.877 16 16 0 0 1 12.742-17.781A16 16 0 0 1 61.1 33.359"></path>
  <path fill="#faecbe" fill-rule="evenodd" d="M59.725 37.5a14.08 14.08 0 0 1-14.08 14.08 14.08 14.08 0 0 1-14.08-14.08 14.08 14.08 0 0 1 14.08-14.08 14.08 14.08 0 0 1 14.08 14.08z"></path>
  <path fill="#fad34b" fill-rule="evenodd" d="m45.159 39.81-1.849 8.782a.886.886 0 0 0 .867 1.068h3.058a.787.787 0 0 0 .77-.95l-1.873-8.9a.497.497 0 0 0-.973 0zm.957-4.548 1.864-8.854a.886.886 0 0 0-.866-1.068h-3.059a.787.787 0 0 0-.77.95l1.889 8.972a.481.481 0 0 0 .942 0zm-2.78 1.752-8.783-1.849a.886.886 0 0 0-1.068.867v3.058a.787.787 0 0 0 .95.77l8.9-1.874a.497.497 0 0 0 0-.972zm4.547.957 8.854 1.864a.886.886 0 0 0 1.068-.866V35.91a.787.787 0 0 0-.95-.77l-8.972 1.889a.481.481 0 0 0 0 .942zm-3.814 1.286-5.992 6.682a.886.886 0 0 0 .216 1.358l2.65 1.529a.787.787 0 0 0 1.14-.437l2.828-8.645a.497.497 0 0 0-.842-.487zm3.103-3.46 6.042-6.735a.886.886 0 0 0-.217-1.358l-2.649-1.53a.787.787 0 0 0-1.141.437l-2.85 8.715a.481.481 0 0 0 .815.472zm-3.284.127-6.681-5.992a.886.886 0 0 0-1.358.216l-1.53 2.649a.787.787 0 0 0 .437 1.142l8.646 2.827a.497.497 0 0 0 .486-.842zm3.46 3.103 6.736 6.041a.886.886 0 0 0 1.358-.216l1.529-2.649a.787.787 0 0 0-.437-1.142l-8.715-2.85a.481.481 0 0 0-.471.816zm-3.946-.793-8.53 2.79a.886.886 0 0 0-.492 1.284l1.53 2.649a.787.787 0 0 0 1.207.192l6.771-6.073a.497.497 0 0 0-.486-.842zm4.417-1.445 8.6-2.812a.886.886 0 0 0 .491-1.285l-1.529-2.649a.787.787 0 0 0-1.207-.192l-6.826 6.122a.481.481 0 0 0 .471.816zm-2.908-1.532-2.79-8.53a.886.886 0 0 0-1.284-.492l-2.649 1.53a.787.787 0 0 0-.192 1.207l6.073 6.77a.497.497 0 0 0 .842-.485zm1.445 4.417 2.813 8.6a.886.886 0 0 0 1.285.491l2.648-1.529a.787.787 0 0 0 .193-1.207l-6.123-6.826a.481.481 0 0 0-.816.47z"></path>
  <path fill="#c9d5e5" fill-opacity=".502" d="M45.669 37.506a30.442 30.442 0 0 1 3.226 16.744H78.99a30.442 30.442 0 0 1 3.227-16.744H45.669z"></path>
  <path fill="#faeb91" d="M45.977 41.02a.32.32 0 0 1-.32.32.32.32 0 0 1-.32-.32.32.32 0 0 1 .32-.32.32.32 0 0 1 .32.32z"></path>
  <path fill="#faeb91" fill-rule="evenodd" d="M45.337 41.02h.64c0 .32-.32.96-.32.96s-.32-.64-.32-.96z"></path>
  <path fill="#faeb91" d="M45.977 33.98a.32.32 0 0 0-.32-.32.32.32 0 0 0-.32.32.32.32 0 0 0 .32.32.32.32 0 0 0 .32-.32z"></path>
  <path fill="#faeb91" fill-rule="evenodd" d="M45.337 33.98h.64c0-.32-.32-.96-.32-.96s-.32.64-.32.96z"></path>
  <path fill="#faeb91" d="M42.137 37.82a.32.32 0 0 1-.32-.32.32.32 0 0 1 .32-.32.32.32 0 0 1 .32.32.32.32 0 0 1-.32.32z"></path>
  <path fill="#faeb91" fill-rule="evenodd" d="M42.137 37.18v.64c-.32 0-.96-.32-.96-.32s.64-.32.96-.32z"></path>
  <path d="M48.764 961.861a.413.413 0 1 1 .825.001.413.413 0 0 1-.825 0zm.185 0c0 .126.1.227.227.227.126 0 .226-.1.226-.227 0-.126-.1-.226-.226-.226s-.227.1-.227.226z" color="#000" font-family="sans-serif" font-weight="400" overflow="visible" style="line-height:normal;text-indent:0;text-align:start;text-decoration-line:none;text-decoration-style:solid;text-decoration-color:#000;text-transform:none;block-progression:tb;isolation:auto;mix-blend-mode:normal" transform="translate(0 -924.362)"></path>
  <path fill="#faeb91" fill-rule="evenodd" d="M49.177 37.18v.64c.32 0 .96-.32.96-.32s-.64-.32-.96-.32z"></path>
  <path fill="#faeb91" d="M44.174 40.709a.32.32 30 0 1-.437.117.32.32 30 0 1-.117-.437.32.32 30 0 1 .437-.118.32.32 30 0 1 .117.438z"></path>
  <path fill="#faeb91" fill-rule="evenodd" d="m43.62 40.389.554.32c-.16.277-.757.671-.757.671s.043-.714.203-.991z"></path>
  <path fill="#faeb91" d="M47.694 34.612a.32.32 30 0 0-.117-.437.32.32 30 0 0-.437.117.32.32 30 0 0 .117.437.32.32 30 0 0 .437-.117z"></path>
  <path fill="#faeb91" fill-rule="evenodd" d="m47.14 34.292.554.32c.16-.277.203-.992.203-.992s-.597.395-.757.672z"></path>
  <path fill="#faeb91" d="M42.448 36.017a.32.32 30 0 1-.117-.437.32.32 30 0 1 .437-.117.32.32 30 0 1 .117.437.32.32 30 0 1-.437.117z"></path>
  <path fill="#faeb91" fill-rule="evenodd" d="m42.768 35.463-.32.554c-.277-.16-.671-.757-.671-.757s.714.043.991.203z"></path>
  <path fill="#faeb91" d="M48.545 39.537a.32.32 30 0 0 .437-.117.32.32 30 0 0-.117-.437.32.32 30 0 0-.437.117.32.32 30 0 0 .117.437z"></path>
  <path fill="#faeb91" fill-rule="evenodd" d="m48.865 38.983-.32.554c.277.16.991.203.991.203s-.394-.597-.67-.757z"></path>
  <path fill="#faeb91" d="M42.768 39.537a.32.32 60 0 1-.437-.117.32.32 60 0 1 .117-.437.32.32 60 0 1 .437.117.32.32 60 0 1-.117.437z"></path>
  <path fill="#faeb91" fill-rule="evenodd" d="m42.448 38.983.32.554c-.277.16-.991.203-.991.203s.394-.597.671-.757z"></path>
  <path fill="#faeb91" d="M48.865 36.017a.32.32 60 0 0 .117-.437.32.32 60 0 0-.437-.117.32.32 60 0 0-.117.437.32.32 60 0 0 .437.117z"></path>
  <path fill="#faeb91" fill-rule="evenodd" d="m48.545 35.463.32.554c.277-.16.671-.757.671-.757s-.714.043-.99.203z"></path>
  <path fill="#faeb91" d="M43.62 34.612a.32.32 60 0 1 .117-.437.32.32 60 0 1 .437.117.32.32 60 0 1-.117.437.32.32 60 0 1-.437-.117z"></path>
  <path fill="#faeb91" fill-rule="evenodd" d="m44.174 34.292-.554.32c-.16-.277-.203-.992-.203-.992s.597.395.757.672z"></path>
  <path d="M47.21 964.552a.414.414 0 0 1 .414.717.416.416 0 0 1-.565-.151.416.416 0 0 1 .151-.566zm.094.162a.225.225 0 0 0-.083.31c.063.11.2.146.31.083.109-.063.146-.2.083-.31a.225.225 0 0 0-.31-.083z" color="#000" font-family="sans-serif" font-weight="400" overflow="visible" style="line-height:normal;text-indent:0;text-align:start;text-decoration-line:none;text-decoration-style:solid;text-decoration-color:#000;text-transform:none;block-progression:tb;isolation:auto;mix-blend-mode:normal" transform="translate(0 -924.362)"></path>
  <path fill="#faeb91" fill-rule="evenodd" d="m47.694 40.389-.554.32c.16.277.757.671.757.671s-.043-.714-.203-.991z"></path>
  <path fill="#f0950b" fill-rule="evenodd" d="M45.645 21.5a16 16 0 0 1 16 16 16 16 0 0 1-16 16 16 16 0 0 1-.889-.03A16 16 0 0 0 60.145 37.5a16 16 0 0 0-15.129-15.968 16 16 0 0 1 .629-.031z"></path>
  <path fill="#fff" fill-rule="evenodd" d="M45.645 21.5a16 16 0 0 0-16 16 16 16 0 0 0 16 16 16 16 0 0 0 .889-.03A16 16 0 0 1 31.145 37.5a16 16 0 0 1 15.13-15.968 16 16 0 0 0-.63-.031z"></path>
  <path fill="#004463" fill-rule="evenodd" d="M45.645 945.361c-9.107 0-16.5 7.394-16.5 16.5 0 9.107 7.393 16.5 16.5 16.5 9.106 0 16.5-7.393 16.5-16.5 0-9.106-7.394-16.5-16.5-16.5zm0 1c8.566 0 15.5 6.934 15.5 15.5 0 8.567-6.934 15.5-15.5 15.5-8.567 0-15.5-6.933-15.5-15.5 0-8.566 6.933-15.5 15.5-15.5z" color="#000" font-family="sans-serif" font-weight="400" overflow="visible" style="line-height:normal;text-indent:0;text-align:start;text-decoration-line:none;text-decoration-style:solid;text-decoration-color:#000;text-transform:none;block-progression:tb;isolation:auto;mix-blend-mode:normal" transform="translate(0 -924.362)"></path>
  <path fill="#f4cc3b" d="M48.1 44a30.388 30.388 0 0 1 .795 10.25H78.99A30.393 30.393 0 0 1 79.784 44H48.1z"></path>
  <path fill="#f4c233" d="M48.895 54.25a30.382 30.382 0 0 1-.953 5.235L44.956 71.5h37.972l-2.986-12.015a30.382 30.382 0 0 1-.953-5.235H48.895z"></path>
  <path fill="#f0a51b" d="m44.956 71.5-1.78 7.155a21.502 21.502 0 0 0-.244 10.095h42.02c.703-3.268.659-6.72-.244-10.095l-1.78-7.155H44.956z"></path>
  <path fill="#fff" d="M45.669 37.506a30.442 30.442 0 0 1 3.226 16.744 30.382 30.382 0 0 1-.953 5.235L44.956 71.5l-1.78 7.155a21.502 21.502 0 0 0-.244 10.095 21.507 21.507 0 0 0 8.678 13.108 21.446 21.446 0 0 0 13.082 3.865 21.438 21.438 0 0 1-11.582-3.865 21.507 21.507 0 0 1-8.678-13.108c-.703-3.268-.659-6.72.245-10.095l1.779-7.155 2.986-12.015a30.38 30.38 0 0 0 .953-5.235 30.442 30.442 0 0 0-3.226-16.744h-1.5z"></path>
  <path fill="#ba580c" d="M83.452 88.75a21.507 21.507 0 0 1-8.678 13.108 21.438 21.438 0 0 1-11.576 3.865h.012c.556.019 1.112.016 1.668-.01h.043c.548-.025 1.095-.07 1.64-.137.026 0 .052 0 .077-.01a21.636 21.636 0 0 0 1.595-.263c.034-.01.07-.012.104-.02.501-.104 1-.231 1.494-.372.065-.019.13-.034.195-.053.47-.137.935-.298 1.397-.468.08-.03.163-.055.244-.086.419-.161.83-.343 1.24-.532.122-.056.248-.103.37-.162.387-.186.766-.396 1.144-.607.129-.072.26-.134.389-.21a21.418 21.418 0 0 0 8.103-8.456 21.65 21.65 0 0 0 2.04-5.59h-1.5z"></path>
  <path fill="#e7760f" d="m81.428 71.5 1.78 7.155c.903 3.375.947 6.827.244 10.095h1.5c.703-3.268.659-6.72-.244-10.095l-1.78-7.155h-1.5z"></path>
  <path fill="#f0a31b" d="M77.489 54.25a30.38 30.38 0 0 0 .953 5.235L81.428 71.5h1.5l-2.986-12.015a30.38 30.38 0 0 1-.953-5.235h-1.5z"></path>
  <path fill="#a9bfd4" fill-opacity=".753" d="M80.716 37.506a30.442 30.442 0 0 0-3.227 16.744h1.5a30.442 30.442 0 0 1 3.227-16.744h-1.5z"></path>
  <path fill="#f4b533" d="M78.284 44a30.389 30.389 0 0 0-.795 10.25h1.5a29.836 29.836 0 0 1-.111-1.927c0-.128-.01-.254-.012-.381-.01-.585 0-1.169.022-1.752.01-.21.023-.418.035-.627a31.27 31.27 0 0 1 .39-3.324c.055-.318.111-.634.176-.95.09-.431.187-.86.295-1.289h-1.5z"></path>
  <path fill="#004463" d="M45.67 961.37a.5.5 0 0 0-.445.726 29.907 29.907 0 0 1 2.234 21.619.5.5 0 0 0-.002.012l-4.768 19.17.004-.01a22.042 22.042 0 0 0 8.631 23.742 21.981 21.981 0 0 0 25.236 0 22.041 22.041 0 0 0 8.633-23.733l-4.765-19.168a.5.5 0 0 0-.004-.011 29.908 29.908 0 0 1 2.236-21.62.5.5 0 0 0-.445-.726H45.67zm.734 1H81.48c-3.247 6.751-4.007 14.394-2.018 21.61l4.762 19.157a.5.5 0 0 0 .002.01 21.034 21.034 0 0 1-8.239 22.664 20.973 20.973 0 0 1-24.088 0 21.035 21.035 0 0 1-8.24-22.664.5.5 0 0 0 .002-.01l4.764-19.157c1.989-7.216 1.227-14.859-2.02-21.61zm5.13 83.991c-1.654 0-3 1.347-3 3v.5a.5.5 0 0 0 .5.5h30a.5.5 0 0 0 .5-.5v-.5c0-1.653-1.347-3-3-3h-25zm0 1h25c1.116 0 2 .884 2 2h-29c0-1.116.883-2 2-2z" color="#000" font-family="sans-serif" font-weight="400" overflow="visible" style="line-height:normal;text-indent:0;text-align:start;text-decoration-line:none;text-decoration-style:solid;text-decoration-color:#000;text-transform:none;block-progression:tb;isolation:auto;mix-blend-mode:normal" transform="translate(0 -924.362)"></path>
  <path fill="#004463" d="M71.027 1028.473a.5.5 0 0 0-.132.019c-3.163.854-5.362 3.748-5.362 7.045v2.761a9.37 9.37 0 0 0 6.95 9.045.5.5 0 1 0 .257-.966 8.36 8.36 0 0 1-6.207-8.079v-2.761c0-2.853 1.896-5.341 4.623-6.078a.5.5 0 0 0-.129-.987z" color="#000" font-family="sans-serif" font-weight="400" overflow="visible" style="line-height:normal;text-indent:0;text-align:start;text-decoration-line:none;text-decoration-style:solid;text-decoration-color:#000;text-transform:none;block-progression:tb;isolation:auto;mix-blend-mode:normal" transform="translate(0 -924.362)"></path>
  <path fill="#004463" fill-rule="evenodd" d="m73.309 949.887-.989.006a.5.5 0 1 0 .006 1l.988-.006a.5.5 0 1 0-.005-1zm2.972-4.02a.5.5 0 0 0-.488.512l.006.986a.5.5 0 1 0 1-.006l-.006-.988a.5.5 0 0 0-.512-.504zm-2.812 1.19a.5.5 0 0 0-.344.861l.701.693a.5.5 0 1 0 .703-.71l-.7-.694a.5.5 0 0 0-.36-.15zM51.867 926.99a.5.5 0 0 0-.459.377l-.199.746a.5.5 0 1 0 .967.258l.199-.746a.5.5 0 0 0-.508-.635zm-1.404 5.24a.5.5 0 0 0-.457.377l-.201.747a.5.5 0 0 0 .966.257l.2-.746a.5.5 0 0 0-.508-.635zm-2.385-3.044a.5.5 0 0 0-.111.984l.746.2a.5.5 0 1 0 .26-.966l-.746-.199a.5.5 0 0 0-.149-.02zm5.24 1.404a.5.5 0 0 0-.111.984l.746.2a.5.5 0 1 0 .26-.965l-.746-.202a.5.5 0 0 0-.149-.017zm-3.8-3.291a.5.5 0 0 0-.41.756l.386.67a.5.5 0 1 0 .865-.5l-.384-.67a.5.5 0 0 0-.457-.256zm2.712 4.7a.5.5 0 0 0-.41.755l.387.668a.5.5 0 1 0 .865-.5l-.386-.668a.5.5 0 0 0-.456-.256zm-3.132-.85a.5.5 0 0 0-.274.07l-.668.386a.5.5 0 1 0 .5.866l.668-.385a.5.5 0 0 0-.226-.938zm4.697-2.713a.5.5 0 0 0-.272.07l-.668.387a.5.5 0 0 0 .5.867l.668-.387a.5.5 0 0 0-.228-.937z" color="#000" font-family="sans-serif" font-weight="400" overflow="visible" style="line-height:normal;text-indent:0;text-align:start;text-decoration-line:none;text-decoration-style:solid;text-decoration-color:#000;text-transform:none;block-progression:tb;isolation:auto;mix-blend-mode:normal" transform="translate(0 -924.362)"></path>
  <path fill="#004463" d="M61.615 940.607a1.758 1.758 0 0 1 1.238 2.143 1.758 1.758 0 0 1-2.143 1.238 1.758 1.758 0 0 1-1.238-2.144 1.758 1.758 0 0 1 2.143-1.237zm-.258.966a.743.743 0 0 0-.919.53.743.743 0 0 0 .53.919.743.743 0 0 0 .919-.53.743.743 0 0 0-.53-.92zm-24.373-6.47a2.508 2.508 0 0 0-1.768 3.062 2.508 2.508 0 0 0 3.062 1.768 2.508 2.508 0 0 0 1.768-3.062 2.508 2.508 0 0 0-3.062-1.768zm.259.966a1.492 1.492 0 0 1 1.837 1.06 1.492 1.492 0 0 1-1.06 1.838 1.492 1.492 0 0 1-1.838-1.06 1.492 1.492 0 0 1 1.06-1.838z" color="#000" font-family="sans-serif" font-weight="400" overflow="visible" style="line-height:normal;text-indent:0;text-align:start;text-decoration-line:none;text-decoration-style:solid;text-decoration-color:#000;text-transform:none;block-progression:tb;isolation:auto;mix-blend-mode:normal" transform="translate(0 -924.362)"></path>
</svg>
