<svg xmlns="http://www.w3.org/2000/svg" width="128" height="128" id="alcohol">
  <path fill="#4e5367" fill-rule="evenodd" d="M31.004 90.668V52.251c0-4.585 2.535-8.557 6.288-10.602.311-.18.311-.168.4-.219a7.67 7.67 0 0 0 3.761-6.614V7.796c0-.912.736-1.646 1.65-1.646h8.8c.914 0 1.65.734 1.65 1.646v27.019a7.67 7.67 0 0 0 4.163 6.838v-.001A12.043 12.043 0 0 1 64 52.25V118.11a4.386 4.386 0 0 1-4.4 4.39h-24.2A4.386 4.386 0 0 1 31 118.11V97.254z"></path>
  <path fill="#eef2fa" d="M35.128 69.5h23.75c.346 0 .625.228.625.51v31.98c0 .283-.279.51-.625.51h-23.75c-.346 0-.625-.227-.625-.51V70.01c0-.282.279-.51.625-.51z"></path>
  <path fill="#fff" fill-rule="evenodd" d="M42.603 6.15c-.914 0-1.649.735-1.649 1.647V34.817a7.666 7.666 0 0 1-3.76 6.613c-.088.05-.089.039-.4.219a12.042 12.042 0 0 0-6.289 10.601v65.86a4.386 4.386 0 0 0 4.4 4.39h2.5a4.386 4.386 0 0 1-4.4-4.39V52.25c0-4.584 2.536-8.556 6.289-10.601.311-.18.31-.168.399-.22a7.667 7.667 0 0 0 3.761-6.612V7.798c0-.913.736-1.647 1.65-1.647h-2.5z"></path>
  <path fill="#004463" d="M35.129 993.363c-.565 0-1.127.399-1.127 1.01v31.98c0 .612.562 1.01 1.127 1.01h23.748c.565 0 1.125-.398 1.125-1.01v-31.98c0-.611-.56-1.01-1.125-1.01H35.129zm0 1h23.748c.127 0 .125.056.125.01v31.98c0-.046.002.01-.125.01H35.129c-.127 0-.127-.055-.127-.01v-31.98c0 .047 0-.01.127-.01z" color="#000" font-family="sans-serif" font-weight="400" overflow="visible" style="line-height:normal;text-indent:0;text-align:start;text-decoration-line:none;text-decoration-style:solid;text-decoration-color:#000;text-transform:none;block-progression:tb;isolation:auto;mix-blend-mode:normal" transform="translate(0 -924.362)"></path>
  <path fill="#004463" fill-rule="evenodd" d="M43.123 1000.356a.5.5 0 0 0-.45.246l-3.597 6.085a.5.5 0 1 0 .861.51l3.168-5.36 3.166 5.36a.5.5 0 1 0 .862-.51l-3.598-6.085a.5.5 0 0 0-.412-.247z" color="#000" font-family="sans-serif" font-weight="400" overflow="visible" style="line-height:normal;text-indent:0;text-align:start;text-decoration-line:none;text-decoration-style:solid;text-decoration-color:#000;text-transform:none;block-progression:tb;isolation:auto;mix-blend-mode:normal" transform="translate(0 -924.362)"></path>
  <path fill="#004463" fill-rule="evenodd" d="M47.92 1000.356a.5.5 0 0 0-.45.246l-2.366 4.005a.5.5 0 1 0 .86.51l1.938-3.28 3.166 5.36a.5.5 0 1 0 .862-.51l-3.598-6.085a.5.5 0 0 0-.412-.247z" color="#000" font-family="sans-serif" font-weight="400" overflow="visible" style="line-height:normal;text-indent:0;text-align:start;text-decoration-line:none;text-decoration-style:solid;text-decoration-color:#000;text-transform:none;block-progression:tb;isolation:auto;mix-blend-mode:normal" transform="translate(0 -924.362)"></path>
  <path fill="#004463" d="M52.002 997.363c-1.099 0-2 .902-2 2 0 1.099.901 2 2 2s2-.901 2-2c0-1.098-.901-2-2-2zm0 1c.558 0 1 .442 1 1s-.442 1-1 1-1-.442-1-1 .442-1 1-1z" color="#000" font-family="sans-serif" font-weight="400" overflow="visible" style="line-height:normal;text-indent:0;text-align:start;text-decoration-line:none;text-decoration-style:solid;text-decoration-color:#000;text-transform:none;block-progression:tb;isolation:auto;mix-blend-mode:normal" transform="translate(0 -924.362)"></path>
  <path fill="#d7343e" d="M39.003 86h16c.554 0 1 .446 1 1s-.446 1-1 1h-16c-.554 0-1-.446-1-1s.446-1 1-1zm3.5 4h9a.499.499 0 1 1 0 1h-9a.499.499 0 1 1 0-1z"></path>
  <path fill="#434859" fill-rule="evenodd" d="M51.403 6.15c.914 0 1.648.735 1.648 1.647V34.817a7.666 7.666 0 0 0 3.76 6.613c.088.05.09.039.4.219a12.042 12.042 0 0 1 6.29 10.601v65.86a4.386 4.386 0 0 1-4.4 4.39h-2.5c2.437 0 4.4-1.958 4.4-4.39V52.25c0-4.584-2.536-8.556-6.29-10.601-.31-.18-.31-.168-.398-.22a7.667 7.667 0 0 1-3.762-6.612V7.798c0-.913-.736-1.647-1.65-1.647h2.5z"></path>
  <path fill="#d7343e" d="M39.003 93h16c.554 0 1 .446 1 1s-.446 1-1 1h-16c-.554 0-1-.446-1-1s.446-1 1-1zm3.5 4h9a.499.499 0 1 1 0 1h-9a.499.499 0 1 1 0-1z"></path>
  <path fill="#004463" fill-rule="evenodd" d="M42.604 930.012c-1.182 0-2.15.965-2.15 2.146v27.02a7.166 7.166 0 0 1-3.517 6.183l-.001.002c-.056.032-.091.042-.383.21l-.002.001-.008.004a12.546 12.546 0 0 0-6.54 11.035v38.418l-.003 6.584v20.856a4.896 4.896 0 0 0 4.9 4.89h24.2a4.894 4.894 0 0 0 4.898-4.89v-65.858a12.55 12.55 0 0 0-6.543-11.039l-.01-.004c-.039-.02-.076-.043-.115-.064-.087-.047-.175-.094-.26-.145a7.164 7.164 0 0 1-3.517-6.183V932.158a2.155 2.155 0 0 0-2.15-2.146h-8.8zm0 1h8.798c.647 0 1.15.503 1.15 1.146V959.178a8.175 8.175 0 0 0 4.425 7.275l.01.006a11.537 11.537 0 0 1 6.011 10.154v65.858a3.875 3.875 0 0 1-3.898 3.89H34.9c-2.17 0-3.9-1.727-3.9-3.89v-20.854l.004-6.586v-38.418c0-4.4 2.43-8.203 6.027-10.164l.006-.002.004-.004c.303-.174.283-.15.4-.217l.002-.002.004-.002a8.175 8.175 0 0 0 4.006-7.045v-27.019c0-.643.504-1.147 1.15-1.147z" color="#000" font-family="sans-serif" font-weight="400" overflow="visible" style="line-height:normal;text-indent:0;text-align:start;text-decoration-line:none;text-decoration-style:solid;text-decoration-color:#000;text-transform:none;block-progression:tb;isolation:auto;mix-blend-mode:normal" transform="translate(0 -924.362)"></path>
  <path fill="#d7343e" fill-rule="evenodd" d="M42.603 6.15c-.914 0-1.65.734-1.65 1.646v2.744h-1.1v4.39h1.1V32.62h12.1V14.93h1.1v-4.39h-1.1V7.795c0-.912-.736-1.646-1.65-1.646z"></path>
  <path fill="#b7343e" fill-rule="evenodd" d="M51.403 6.15c.914 0 1.648.735 1.648 1.647v2.744h1.102v4.389H53.05V32.62h-2.548V14.93h1.1V10.54h-1.1V7.797c0-.912-.736-1.646-1.65-1.646z"></path>
  <path fill="#fff" fill-rule="evenodd" d="M42.603 6.15c-.914 0-1.649.735-1.649 1.647v2.744h-1.101v4.389h1.101V32.62h2.549V14.93h-1.1V10.54h1.1V7.797c0-.912.736-1.646 1.65-1.646z"></path>
  <path fill="#004463" fill-rule="evenodd" d="M42.604 930.012c-1.182 0-2.15.965-2.15 2.146v2.244h-.6a.5.5 0 0 0-.5.5v4.391a.5.5 0 0 0 .5.5h.6V956.983a.5.5 0 0 0 .5.5h12.099a.5.5 0 0 0 .5-.5v-17.19h.6a.5.5 0 0 0 .5-.5v-4.39a.5.5 0 0 0-.5-.5h-.6v-2.245a2.155 2.155 0 0 0-2.15-2.146h-8.8zm0 1h8.798c.647 0 1.15.503 1.15 1.146v2.744a.5.5 0 0 0 .5.5h.6v3.391h-.6a.5.5 0 0 0-.5.5v17.189H41.454v-17.189a.5.5 0 0 0-.5-.5h-.6v-3.39h.6a.5.5 0 0 0 .5-.5v-2.745c0-.643.504-1.146 1.15-1.146z" color="#000" font-family="sans-serif" font-weight="400" overflow="visible" style="line-height:normal;text-indent:0;text-align:start;text-decoration-line:none;text-decoration-style:solid;text-decoration-color:#000;text-transform:none;block-progression:tb;isolation:auto;mix-blend-mode:normal" transform="translate(0 -924.362)"></path>
  <path fill="#d7343e" d="M96.503 75a17 14.5 0 0 1-17 14.5 17 14.5 0 0 1-17-14.5 17 14.5 0 0 1 17-14.5 17 14.5 0 0 1 17 14.5zm-28.5-17.5h23a.499.499 0 1 1 0 1h-23a.499.499 0 1 1 0-1z"></path>
  <path fill="#d2d7e5" fill-rule="evenodd" d="M62.503 74.5c0-6 2-8 5-16.6h24c3 8.6 5 10.6 5 16.6z"></path>
  <path fill="#b8c0d6" d="M91.503 57.9c3 8.6 5 10.6 5 16.6v.5c0 8.008-7.611 14.5-17 14.5-.422 0-.836-.027-1.25-.053 8.803-.548 15.75-6.8 15.75-14.447v-.5c0-6-2-8-5-16.6h2.5z"></path>
  <path fill="#9e343e" d="M62.503 74.5h.029c-.013.166-.023.333-.029.5.01 7.011 5.894 13.014 13.984 14.258v.016a2.526 2.526 0 0 1 2.01 2.242h.01V118a2.5 2.5 0 0 1-2.5 2.5h-7.5c-.554 0-1 .446-1 1s.446 1 1 1h22c.554 0 1-.446 1-1s-.446-1-1-1h-7.5a2.5 2.5 0 0 1-2.5-2.5V91.516a2.526 2.526 0 0 1 2.008-2.242v-.01C90.61 88.022 96.501 82.015 96.505 75a7.59 7.59 0 0 0-.022-.5h.022c-21 .099-25 .04-34 0z"></path>
  <path fill="#d2d7e5" d="M76.487 89.258v.016a2.526 2.526 0 0 1 2.01 2.242h.01V118a2.5 2.5 0 0 1-2.5 2.5h-7.5c-.554 0-1 .446-1 1s.446 1 1 1h22c.554 0 1-.446 1-1s-.446-1-1-1h-7.5a2.5 2.5 0 0 1-2.5-2.5V91.516a2.526 2.526 0 0 1 2.008-2.242v-.01a17 14.5 0 0 1-3.01.236 17 14.5 0 0 1-3.015-.242z"></path>
  <path fill="#fff" d="M67.503 57.9c-3 8.6-5 10.6-5 16.6v.5c0 8.008 7.611 14.5 17 14.5.422 0 .836-.027 1.25-.053-8.803-.548-15.75-6.8-15.75-14.447v-.5c0-6 2-8 5-16.6h-2.5z"></path>
  <path fill="#74343e" d="M96.503 74.5v.5c0 8.008-7.611 14.5-17 14.5-.422 0-.836-.027-1.25-.053 8.803-.548 15.75-6.8 15.75-14.447v-.5z"></path>
  <path fill="#fff" d="M68.507 120.499c-.554 0-1 .446-1 1s.446 1 1 1h2.5c-.554 0-1-.446-1-1s.446-1 1-1z"></path>
  <path fill="#4e5367" d="M90.507 120.5c.554 0 1 .445 1 1 0 .553-.446 1-1 1h-2.5c.554 0 1-.447 1-1 0-.555-.446-1-1-1z"></path>
  <path fill="#004463" d="M68.004 981.361c-.3 0-.554.151-.701.303-.148.152-.22.304-.264.412a.5.5 0 0 0-.008.022c-1.492 4.278-2.735 6.909-3.62 9.263-.887 2.355-1.407 4.445-1.407 7.5v.07c-.01.178 0 .301 0 .43a.5.5 0 0 0 0 .002c.01 7.225 6.022 13.332 14.2 14.684a.5.5 0 0 0 .183.078c.877.179 1.53.908 1.613 1.799a.5.5 0 0 0 .008.057v26.38c0 1.111-.89 2-2 2h-7.5c-.823 0-1.5.678-1.5 1.5 0 .823.677 1.5 1.5 1.5h22c.822 0 1.5-.677 1.5-1.5 0-.822-.678-1.5-1.5-1.5h-7.5c-1.11 0-2-.889-2-2v-26.44a2.02 2.02 0 0 1 1.607-1.796.5.5 0 0 0 .162-.064c8.196-1.341 14.225-7.463 14.229-14.699 0-.133-.008-.255-.016-.377a.5.5 0 0 0 .016-.123c0-3.055-.522-5.145-1.408-7.5-.887-2.355-2.129-4.985-3.621-9.264l.011.036c-.112-.417-.467-.772-.982-.772H68.004zm.016 1h22.986c-.02 0 .02.044.015.03a.5.5 0 0 0 .012.035c1.508 4.321 2.765 6.992 3.63 9.287.85 2.263 1.32 4.166 1.333 7.041a.5.5 0 0 0-.012.14c.011.167.022.323.022.467-.004 6.736-5.675 12.56-13.567 13.77a.5.5 0 0 0-.312.18c-1.135.371-2.005 1.311-2.117 2.521a.5.5 0 0 0-.002.045v26.48c0 1.651 1.349 3 3 3h7.5c.286 0 .5.215.5.5 0 .286-.214.5-.5.5h-22a.488.488 0 0 1-.5-.5c0-.285.214-.5.5-.5h7.5c1.65 0 3-1.349 3-3v-26.484a.5.5 0 0 0-.149-.353 2.931 2.931 0 0 0-1.974-2.207.5.5 0 0 0-.323-.188c-7.887-1.212-13.548-7.032-13.558-13.764 0-.192-.012-.265-.002-.39a.5.5 0 0 0 .002-.04v-.07c0-2.944.478-4.853 1.342-7.148.862-2.29 2.118-4.96 3.62-9.264a.4.4 0 0 1 .054-.088z" color="#000" font-family="sans-serif" font-weight="400" overflow="visible" style="line-height:normal;text-indent:0;text-align:start;text-decoration-line:none;text-decoration-style:solid;text-decoration-color:#000;text-transform:none;block-progression:tb;isolation:auto;mix-blend-mode:normal" transform="translate(0 -924.362)"></path>
  <path fill="#004463" d="M67.516 981.756a.5.5 0 0 0-.485.342c-1.492 4.278-2.735 6.909-3.62 9.263-.887 2.355-1.407 4.445-1.407 7.5a.5.5 0 0 0 .02.139c-.008.114-.016.229-.02.344a.5.5 0 0 0 0 .017c0 8.325 7.88 15 17.5 15 9.62 0 17.5-6.675 17.5-15v-.5c0-3.055-.522-5.145-1.408-7.5-.886-2.354-2.129-4.985-3.621-9.263a.5.5 0 1 0-.944.33c1.508 4.321 2.765 6.99 3.63 9.285.863 2.295 1.343 4.204 1.343 7.148v.5c0 7.692-7.342 14-16.5 14-9.158 0-16.5-6.308-16.5-14 .006-.153.015-.306.027-.46a.5.5 0 0 0-.015-.165c.015-2.863.48-4.765 1.33-7.023.864-2.295 2.121-4.964 3.629-9.285a.5.5 0 0 0-.46-.672z" color="#000" font-family="sans-serif" font-weight="400" overflow="visible" style="line-height:normal;text-indent:0;text-align:start;text-decoration-line:none;text-decoration-style:solid;text-decoration-color:#000;text-transform:none;block-progression:tb;isolation:auto;mix-blend-mode:normal" transform="translate(0 -924.362)"></path>
  <path fill="#004463" d="M62.504 998.361a.5.5 0 0 0-.002 1h.032c8.965.041 13.026.099 33.913 0H96.506a.5.5 0 0 0-.002-1h-.022c-20.95.099-24.968.041-33.949 0H62.504zm9-32.998a2.508 2.508 0 0 0-2.5 2.5c0 1.375 1.125 2.5 2.5 2.5s2.5-1.125 2.5-2.5-1.125-2.5-2.5-2.5zm0 1c.834 0 1.5.666 1.5 1.5 0 .835-.666 1.5-1.5 1.5s-1.5-.665-1.5-1.5c0-.834.666-1.5 1.5-1.5zm6.285 8.428c-.98 0-1.787.805-1.787 1.785 0 .98.807 1.785 1.787 1.785.98 0 1.785-.805 1.785-1.785 0-.98-.805-1.785-1.785-1.785zm0 1c.44 0 .785.345.785.785 0 .44-.345.785-.785.785a.779.779 0 0 1-.787-.785c0-.44.347-.785.787-.785z" color="#000" font-family="sans-serif" font-weight="400" overflow="visible" style="line-height:normal;text-indent:0;text-align:start;text-decoration-line:none;text-decoration-style:solid;text-decoration-color:#000;text-transform:none;block-progression:tb;isolation:auto;mix-blend-mode:normal" transform="translate(0 -924.362)"></path>
  <path fill="#004463" fill-rule="evenodd" d="M84.996 960.861a.5.5 0 0 0-.492.508v.871a.5.5 0 1 0 1 0v-.87a.5.5 0 0 0-.508-.509zm0 6.118a.5.5 0 0 0-.492.505v.871a.5.5 0 1 0 1 0v-.87a.5.5 0 0 0-.508-.506zm2.629-2.618a.5.5 0 1 0 0 1h.871a.5.5 0 1 0 0-1h-.871zm-6.115 0a.5.5 0 1 0 0 1h.87a.5.5 0 1 0 0-1h-.87zm5.953-2.474a.5.5 0 0 0-.344.152l-.615.615a.5.5 0 1 0 .707.707l.615-.615a.5.5 0 0 0-.363-.86zm-4.324 4.324a.5.5 0 0 0-.344.152l-.615.616a.5.5 0 1 0 .707.707l.615-.616a.5.5 0 0 0-.363-.86zm3.713 0a.5.5 0 0 0-.348.86l.615.615a.5.5 0 1 0 .707-.707l-.615-.616a.5.5 0 0 0-.36-.152zm-4.325-4.324a.5.5 0 0 0-.347.86l.615.614a.5.5 0 1 0 .707-.707l-.615-.615a.5.5 0 0 0-.36-.152z" color="#000" font-family="sans-serif" font-weight="400" overflow="visible" style="line-height:normal;text-indent:0;text-align:start;text-decoration-line:none;text-decoration-style:solid;text-decoration-color:#000;text-transform:none;block-progression:tb;isolation:auto;mix-blend-mode:normal" transform="translate(0 -924.362)"></path>
</svg>
